<?xml version="1.0" standalone="no"?>
<!DOCTYPE svg PUBLIC "-//W3C//DTD SVG 20010904//EN"
 "http://www.w3.org/TR/2001/REC-SVG-20010904/DTD/svg10.dtd">
<svg version="1.0" xmlns="http://www.w3.org/2000/svg"
 width="4096.000000pt" height="4096.000000pt" viewBox="0 0 4096.000000 4096.000000"
 preserveAspectRatio="xMidYMid meet">
<metadata>
Created by potrace 1.11, written by Peter Selinger 2001-2013
</metadata>
<g transform="translate(0.000000,4096.000000) scale(0.100000,-0.100000)"
fill="#000000" stroke="none">
<path d="M15735 37819 c-935 -935 -1758 -1753 -1830 -1817 -174 -155 -461
-438 -599 -592 -1011 -1123 -1640 -2560 -1781 -4070 -33 -352 -35 -617 -35
-4206 l0 -3602 -82 55 c-164 110 -303 161 -459 170 -500 29 -862 -480 -976
-1372 -22 -175 -25 -758 -5 -955 143 -1381 743 -2630 1450 -3020 l81 -45 1
-65 c1 -295 75 -1023 156 -1530 317 -2002 989 -3887 1845 -5183 93 -141 101
-155 144 -295 100 -324 402 -1226 514 -1537 550 -1532 1121 -2809 1739 -3890
988 -1730 2067 -2869 3195 -3369 1231 -546 2523 -351 3691 558 209 163 343
283 582 521 309 308 537 572 820 950 1106 1475 2148 3706 3048 6525 l123 385
100 150 c851 1277 1530 3183 1847 5185 81 507 155 1235 156 1530 l1 65 81 45
c230 127 449 344 657 650 412 606 699 1465 793 2370 20 197 17 780 -5 955 -87
677 -316 1138 -649 1305 -108 54 -207 74 -327 67 -156 -9 -295 -60 -459 -170
l-81 -55 -4 3762 c-3 2788 -7 3795 -15 3891 -56 608 -145 1084 -298 1580 -203
656 -524 1322 -912 1890 -1179 1728 -3059 2862 -5112 3084 -102 11 -205 23
-230 27 -25 3 -1120 9 -2435 13 l-2390 6 3 200 c4 227 -11 364 -57 546 -68
268 -182 504 -357 740 -69 92 -209 249 -223 249 -3 0 -771 -765 -1706 -1701z"/>
</g>
</svg>
