<?xml version="1.0" standalone="no"?>
<!DOCTYPE svg PUBLIC "-//W3C//DTD SVG 20010904//EN"
 "http://www.w3.org/TR/2001/REC-SVG-20010904/DTD/svg10.dtd">
<svg version="1.0" xmlns="http://www.w3.org/2000/svg"
 width="621.000000pt" height="102.000000pt" viewBox="0 0 621.000000 102.000000"
 preserveAspectRatio="xMidYMid meet">
<metadata>
Created by potrace 1.13, written by Peter Selinger 2001-2015
</metadata>
<g transform="translate(0.000000,102.000000) scale(0.100000,-0.100000)"
fill="#00bcd4" stroke="none">
<path d="M4890 769 c-10 -17 -4 -29 39 -82 28 -34 51 -65 51 -69 0 -10 -225
-13 -1020 -16 -377 -2 -698 -4 -715 -7 -16 -2 -445 -6 -952 -10 l-923 -6 -32
24 c-18 13 -71 47 -118 74 l-85 51 -357 5 c-196 3 -366 3 -377 0 -28 -7 -27
-37 3 -60 13 -11 64 -36 114 -58 l91 -39 -2 -35 c-1 -20 2 -46 6 -57 7 -19 -4
-30 -92 -88 -55 -36 -102 -70 -105 -74 -3 -5 1 -17 8 -27 15 -20 -11 -21 546
16 257 17 233 10 325 100 l81 79 381 0 c487 0 815 10 785 23 -43 20 -21 28 70
25 59 -2 93 -7 95 -15 3 -7 -9 -13 -29 -16 -18 -2 103 -5 270 -5 166 -1 301 1
301 5 -4 27 4 33 47 33 41 0 46 -2 41 -20 -3 -12 0 -20 8 -20 7 0 12 8 11 18
-1 15 10 17 82 20 68 2 82 0 82 -13 0 -8 9 -15 20 -15 11 0 20 7 20 15 0 22
108 21 116 0 6 -14 8 -14 18 0 9 13 38 15 196 13 142 -2 184 -6 183 -15 -2 -7
2 -13 7 -13 6 0 10 7 10 15 0 9 9 15 25 15 16 0 25 -6 25 -15 0 -8 5 -15 10
-15 6 0 10 5 10 11 0 8 5 7 15 -1 9 -7 18 -10 22 -6 3 3 0 6 -8 7 -8 1 -3 5
11 9 40 13 324 12 337 -1 15 -15 54 -18 71 -6 7 5 67 11 135 13 93 2 127 -1
144 -12 28 -18 34 -18 27 1 -5 12 5 15 59 15 36 0 69 -4 72 -10 3 -5 1 -10 -4
-10 -6 0 -11 -8 -11 -17 0 -10 -21 -45 -46 -78 -25 -33 -59 -79 -75 -102 l-29
-41 182 74 c294 120 449 162 648 173 105 5 115 8 115 25 0 25 -24 31 -177 45
-339 31 -528 75 -675 157 -34 19 -64 34 -67 34 -3 0 -10 -9 -16 -21z m-3911
-119 c49 -26 87 -57 79 -65 -3 -4 -62 -6 -130 -6 -116 1 -124 3 -147 26 -20
20 -22 26 -12 39 15 17 46 13 94 -11 31 -16 48 -10 29 9 -18 18 -15 23 19 25
17 1 47 -6 68 -17z m1306 -130 c0 -13 -22 -14 -150 -11 -205 4 -440 3 -620 -4
-111 -5 -160 -3 -190 7 -37 12 -24 13 155 18 107 3 332 6 500 5 264 0 305 -2
305 -15z m3205 10 c0 -5 -8 -10 -18 -10 -22 0 -133 -36 -330 -107 -85 -30
-156 -53 -158 -50 -5 5 111 116 146 139 l25 17 -48 0 c-29 1 -46 5 -42 11 4 6
87 10 216 10 133 0 209 -4 209 -10z m-4375 -50 c9 -14 -92 -88 -138 -101 -23
-6 -60 -17 -82 -25 -25 -8 -53 -10 -75 -6 -32 7 -33 9 -15 19 11 6 16 15 12
19 -11 11 -103 -14 -159 -42 -39 -20 -48 -21 -48 -9 0 8 4 15 9 15 5 0 7 9 4
19 -4 15 8 25 60 50 36 17 79 31 97 31 17 0 40 5 51 11 24 12 53 -6 45 -28 -7
-16 18 -11 66 13 15 8 40 14 56 14 16 0 45 7 63 15 41 17 46 18 54 5z m221 -1
c6 -11 -52 -71 -101 -103 -28 -18 -56 -21 -72 -5 -7 7 -28 4 -69 -10 -32 -12
-66 -21 -76 -21 -30 0 -29 18 5 39 17 12 49 34 71 49 31 23 45 27 75 22 26 -4
52 1 91 17 65 26 67 26 76 12z"/>
</g>
</svg>
