<?xml version="1.0" standalone="no"?>
<!DOCTYPE svg PUBLIC "-//W3C//DTD SVG 20010904//EN"
 "http://www.w3.org/TR/2001/REC-SVG-20010904/DTD/svg10.dtd">
<svg version="1.0" xmlns="http://www.w3.org/2000/svg"
 width="621.000000pt" height="102.000000pt" viewBox="0 0 621.000000 102.000000"
 preserveAspectRatio="xMidYMid meet">
<metadata>
Created by potrace 1.13, written by Peter Selinger 2001-2015
</metadata>
<g transform="translate(0.000000,102.000000) scale(0.100000,-0.100000)"
fill="#00bcd4" stroke="none">
<path d="M1160 669 c-293 -122 -457 -166 -653 -176 -90 -4 -120 -9 -124 -20
-10 -27 14 -34 153 -49 391 -40 581 -84 708 -164 55 -36 62 -36 76 -9 10 17 4
29 -39 82 -28 34 -51 65 -51 68 0 10 510 18 1510 24 498 3 1171 8 1496 12
l591 6 121 -75 120 -75 361 -6 c198 -3 369 -3 380 0 28 7 26 37 -3 60 -13 11
-64 36 -114 58 l-91 39 2 35 c1 20 -2 46 -6 57 -7 19 3 29 80 79 120 79 125
84 112 106 -11 22 -58 24 -239 9 -63 -5 -194 -14 -290 -20 -277 -17 -252 -10
-345 -101 l-81 -79 -390 0 c-490 0 -807 -9 -776 -23 42 -19 22 -27 -67 -27
-88 0 -121 11 -90 31 8 5 -110 8 -281 8 -162 -1 -287 -3 -277 -6 32 -8 -1 -33
-44 -33 -32 0 -39 3 -39 20 0 11 -4 20 -9 20 -5 0 -8 -8 -7 -17 1 -16 -10 -18
-80 -21 -75 -3 -82 -1 -87 18 -6 23 -37 18 -37 -6 0 -10 -15 -14 -60 -14 -50
0 -60 3 -60 17 0 16 -1 16 -13 0 -11 -16 -32 -17 -197 -15 -142 2 -184 6 -183
16 2 6 -2 12 -7 12 -6 0 -10 -7 -10 -15 0 -9 -9 -15 -25 -15 -16 0 -25 6 -25
15 0 8 -4 15 -10 15 -5 0 -10 -5 -10 -11 0 -8 -5 -7 -15 1 -9 7 -18 10 -22 6
-3 -3 0 -6 8 -7 8 -1 3 -5 -11 -9 -40 -13 -324 -12 -337 1 -15 15 -54 18 -71
6 -7 -5 -67 -11 -135 -13 -93 -2 -127 1 -144 12 -28 18 -34 18 -27 -1 5 -12
-5 -15 -59 -15 -36 0 -69 5 -72 10 -3 6 -1 10 4 10 6 0 11 7 11 17 0 9 24 48
53 87 63 85 100 136 95 135 -2 0 -77 -32 -168 -70z m4431 2 c-6 -4 -9 -15 -6
-23 8 -20 -107 -78 -155 -78 -17 0 -40 -5 -51 -11 -24 -12 -53 6 -45 28 7 18
-8 16 -54 -7 -22 -11 -52 -20 -67 -20 -15 0 -47 -7 -70 -16 -24 -9 -47 -14
-51 -9 -11 11 79 84 123 99 118 39 141 44 175 37 32 -6 33 -8 15 -18 -11 -6
-16 -15 -12 -19 10 -11 130 22 170 46 21 13 33 16 36 9 2 -6 -2 -15 -8 -18z
m-377 0 c3 -5 -9 -18 -27 -30 -17 -11 -49 -34 -69 -49 -31 -25 -43 -28 -75
-23 -28 5 -53 1 -97 -17 -80 -32 -97 -16 -38 37 23 21 53 46 67 55 30 20 79
22 72 3 -4 -10 13 -7 56 9 66 25 102 29 111 15z m-4044 -74 c-36 -34 -76 -70
-90 -79 l-25 -17 48 0 c29 -1 46 -5 42 -11 -4 -6 -87 -10 -216 -10 -133 0
-209 4 -209 10 0 6 8 10 18 10 29 0 446 140 460 155 3 3 12 5 21 5 9 0 -11
-26 -49 -63z m3215 -89 c88 1 228 4 310 7 106 5 161 3 188 -6 20 -7 36 -14 34
-16 -2 -1 -224 -6 -494 -9 -494 -7 -517 -6 -497 27 5 9 47 9 153 4 80 -5 218
-8 306 -7z m1046 -94 c21 -23 22 -25 6 -41 -16 -16 -20 -16 -69 5 -52 22 -72
22 -50 0 18 -18 15 -23 -19 -25 -40 -3 -149 54 -149 78 0 11 44 14 156 11 93
-3 104 -5 125 -28z"/>
</g>
</svg>
