<?xml version="1.0" standalone="no"?>
<!DOCTYPE svg PUBLIC "-//W3C//DTD SVG 20010904//EN"
 "http://www.w3.org/TR/2001/REC-SVG-20010904/DTD/svg10.dtd">
<svg version="1.0" xmlns="http://www.w3.org/2000/svg"
 width="125.000000pt" height="125.000000pt" viewBox="0 0 2828.000000 2828.000000"
 preserveAspectRatio="xMidYMid meet">
<metadata>
Created by potrace 1.13, written by Peter Selinger 2001-2015
</metadata>
<g transform="translate(0.000000,2828.000000) scale(0.100000,-0.100000)"
fill="#ffffff" stroke="none">
<path d="M737 22120 c-170 -29 -302 -95 -413 -205 -67 -67 -90 -98 -137 -192
-230 -451 -246 -1007 -48 -1600 153 -459 401 -866 813 -1335 157 -180 275
-304 653 -693 612 -629 744 -785 1095 -1300 412 -605 643 -842 988 -1014 81
-41 224 -89 319 -107 108 -20 278 -18 393 7 124 26 340 35 464 20 263 -34 568
-158 857 -350 261 -172 436 -323 855 -732 407 -398 597 -563 829 -719 322
-215 608 -322 940 -349 125 -10 206 -32 280 -76 202 -118 358 -359 483 -745
52 -161 151 -555 197 -782 132 -657 125 -1169 -21 -1580 -35 -98 -114 -259
-163 -333 -22 -33 -348 -467 -725 -965 -377 -498 -686 -908 -686 -911 0 -9
134 -45 278 -74 242 -50 347 -59 667 -60 314 0 455 13 683 64 45 10 82 15 82
11 0 -16 -123 -246 -181 -339 -150 -241 -275 -397 -484 -607 -229 -230 -448
-401 -689 -538 l-79 -44 55 -35 c76 -49 296 -158 405 -200 180 -71 401 -129
628 -163 137 -21 541 -30 702 -15 671 61 1323 322 1848 740 733 585 1282 1470
1575 2541 58 212 105 433 160 760 72 417 142 655 247 838 217 375 585 528
1078 446 200 -34 402 -95 780 -236 314 -118 465 -169 660 -222 530 -146 989
-207 1555 -207 662 0 1243 94 1858 300 129 43 202 63 202 55 0 -37 -35 -187
-62 -262 -135 -384 -433 -693 -804 -836 -49 -18 -115 -40 -146 -47 -32 -6 -58
-15 -58 -19 0 -4 39 -25 87 -48 294 -138 622 -228 993 -274 138 -17 581 -17
725 1 679 81 1283 333 1764 737 l103 87 -7 -54 c-18 -144 -77 -290 -165 -408
-64 -86 -214 -233 -317 -309 -99 -72 -188 -126 -433 -262 -332 -185 -475 -284
-606 -422 -172 -181 -237 -333 -237 -553 0 -216 72 -391 205 -495 75 -60 133
-76 390 -109 572 -74 833 -95 1208 -95 388 0 649 28 937 99 571 141 1039 418
1343 796 47 59 229 339 461 710 1562 2505 2286 3667 2372 3809 476 789 687
1322 764 1934 24 185 23 655 0 861 -70 604 -222 1174 -565 2113 l-71 194 49
49 c101 101 157 268 147 438 -7 118 -26 192 -76 296 -110 229 -310 402 -776
668 -1193 680 -1915 964 -2705 1063 -92 11 -245 18 -478 21 -469 7 -644 -5
-1612 -112 -466 -51 -946 -104 -3730 -411 -2100 -231 -2483 -273 -3035 -336
-531 -60 -559 -62 -805 -63 -422 0 -695 46 -1414 241 -631 171 -910 235 -1166
269 -169 23 -544 31 -706 16 -611 -58 -1042 -272 -1337 -665 -120 -161 -210
-214 -402 -238 -183 -23 -387 11 -775 131 -398 122 -617 205 -865 327 -259
127 -467 275 -656 466 -188 191 -238 200 -724 137 -152 -20 -182 -21 -285 -11
-208 21 -363 73 -738 248 -355 166 -469 210 -653 254 -211 49 -256 52 -979 60
-377 4 -696 10 -710 14 -14 3 -72 13 -130 22 -140 22 -313 72 -437 127 -145
64 -281 145 -581 344 -476 315 -640 395 -907 438 -95 16 -317 18 -398 5z m873
-455 c41 -15 317 -148 612 -296 566 -283 685 -338 838 -387 137 -44 235 -62
395 -73 189 -12 262 -25 332 -58 100 -49 143 -114 143 -218 0 -68 -25 -130
-65 -161 -24 -19 -38 -21 -143 -19 -71 1 -139 -3 -172 -12 -213 -52 -382 -222
-426 -430 -28 -135 -12 -252 57 -396 92 -194 61 -340 -146 -696 -158 -270
-249 -500 -299 -754 -49 -252 -56 -491 -22 -735 7 -52 12 -98 10 -101 -2 -3
-26 -2 -55 2 -101 16 -186 92 -304 271 -139 211 -238 332 -404 498 -225 225
-420 370 -686 510 -113 59 -129 71 -160 120 -25 41 -362 838 -436 1032 -64
169 -131 403 -155 538 -28 157 -26 490 3 616 67 286 207 506 410 640 156 105
295 145 478 140 101 -3 132 -8 195 -31z m2705 -666 c776 -318 1646 -526 2525
-604 207 -18 252 -35 334 -118 100 -103 168 -283 197 -522 19 -149 19 -860 1
-1040 -51 -505 -111 -814 -257 -1320 -84 -290 -108 -418 -109 -570 -1 -234 24
-290 267 -603 631 -812 1178 -1604 1716 -2485 159 -260 169 -277 154 -277 -25
0 -269 68 -418 117 -766 250 -1465 670 -2041 1226 -76 73 -225 231 -332 352
-108 121 -250 274 -316 340 -249 248 -467 376 -692 405 -189 25 -217 31 -276
61 -102 51 -223 178 -316 331 -124 203 -417 809 -535 1108 -187 473 -264 808
-274 1195 -7 263 7 375 82 685 105 435 143 711 152 1115 5 234 -6 533 -23 633
-4 17 -2 32 2 32 5 0 76 -28 159 -61z m19640 -339 c532 -28 975 -125 1385
-302 134 -58 233 -111 420 -221 176 -105 296 -160 635 -296 322 -129 563 -244
685 -326 268 -180 446 -393 526 -629 25 -71 52 -232 41 -242 -3 -4 -97 21
-208 55 -111 34 -204 60 -205 58 -2 -2 20 -57 50 -123 384 -861 632 -1815 733
-2814 22 -222 25 -718 5 -860 -59 -416 -175 -700 -547 -1340 -976 -1682 -2004
-3304 -3074 -4849 -172 -248 -209 -291 -256 -291 -39 0 -64 31 -128 162 -36
73 -244 493 -462 933 -635 1280 -795 1621 -1000 2130 -346 860 -515 1562 -565
2345 -13 209 -13 849 0 1130 6 118 23 445 40 725 53 914 63 1344 40 1751 -62
1074 -320 1900 -791 2527 -49 66 -88 121 -87 122 5 5 449 101 683 149 815 165
1523 235 2080 206z m-11815 -415 c673 -91 1273 -347 2120 -903 254 -166 590
-397 692 -474 118 -89 168 -160 205 -289 16 -57 18 -100 16 -394 -7 -921 -71
-2176 -169 -3270 -79 -888 -204 -1945 -246 -2072 -44 -134 -121 -195 -270
-214 -137 -18 -1848 3 -2933 36 -996 30 -2175 84 -2175 99 0 2 17 41 39 87
132 288 183 637 161 1101 -6 114 -21 350 -34 525 -34 434 -39 621 -27 873 61
1197 455 2303 1157 3247 126 169 159 248 170 398 15 206 -77 403 -242 521
-139 100 -343 145 -478 107 -58 -16 162 186 313 288 258 174 610 299 951 338
52 6 111 13 130 15 78 9 511 -4 620 -19z m8344 -9 c180 -51 349 -151 499 -295
303 -291 463 -691 532 -1321 40 -372 85 -1243 106 -2065 13 -493 7 -1738 -10
-2185 -27 -702 -55 -1169 -77 -1294 -50 -292 -182 -473 -552 -754 -314 -239
-694 -458 -1072 -617 -419 -176 -956 -315 -1430 -370 -862 -98 -1746 16 -2517
326 -189 75 -514 237 -623 309 -134 90 -247 205 -296 305 -52 105 -56 176 -20
370 240 1315 390 2732 447 4220 17 437 17 1435 1 1555 -39 292 -129 476 -295
606 -87 68 -261 154 -462 229 -211 79 -308 121 -400 174 -76 44 -210 163 -233
207 -14 26 -63 18 498 84 1667 197 3121 342 5230 520 411 35 540 34 674 -4z
m-12624 -394 c753 -380 1560 -596 2391 -641 163 -9 194 -17 235 -63 41 -44 58
-90 58 -159 0 -55 -5 -77 -32 -130 -38 -78 -65 -113 -305 -403 -454 -547 -630
-799 -797 -1141 -131 -266 -204 -495 -255 -790 -43 -256 -50 -359 -50 -760 1
-411 7 -512 70 -1101 40 -371 43 -480 16 -540 -17 -38 -62 -84 -82 -84 -17 0
-438 577 -726 995 -346 503 -786 1192 -878 1376 -52 103 -85 217 -85 293 0
151 98 609 192 896 169 516 399 882 742 1178 117 101 142 144 133 229 -12 120
-100 239 -219 299 -37 19 -139 55 -225 80 -193 56 -291 101 -349 161 -84 86
-131 225 -104 307 11 36 55 96 69 96 4 0 94 -44 201 -98z m-4312 -723 c40 -78
50 -176 33 -304 -44 -322 -45 -343 -33 -465 21 -215 86 -418 230 -725 39 -82
246 -505 461 -939 215 -434 391 -794 391 -799 0 -11 -419 -1 -603 14 -66 5
-151 16 -190 25 -234 52 -409 215 -570 531 -310 609 -422 1230 -317 1754 73
362 228 665 462 903 42 43 83 76 90 74 7 -3 28 -34 46 -69z m10093 -6740 c21
-7 51 -25 66 -41 24 -26 28 -37 27 -86 -1 -41 -122 -508 -423 -1632 -232 -866
-440 -1636 -461 -1711 -104 -360 -204 -549 -422 -796 -156 -177 -1288 -1296
-1356 -1341 -34 -22 -87 -50 -118 -61 -64 -24 -134 -28 -134 -7 0 12 -105 945
-236 2091 -25 220 -47 401 -49 403 -1 2 -69 -4 -151 -12 -82 -8 -150 -13 -153
-11 -4 4 13 490 49 1450 48 1257 61 1543 71 1592 14 70 52 108 122 122 31 7
537 18 1277 29 1531 24 1841 26 1891 11z m-4016 -2063 c51 -22 89 -84 134
-219 91 -276 139 -541 148 -822 9 -277 -19 -448 -97 -610 -115 -239 -321 -370
-660 -421 -107 -16 -580 -33 -928 -34 -197 0 -235 7 -266 51 -22 33 -20 63 8
96 23 27 25 27 70 15 66 -17 107 -15 173 10 91 33 165 115 243 269 318 626
591 1059 965 1530 56 70 105 122 126 132 42 20 42 20 84 3z m12855 -386 c75
-40 1051 -1545 1067 -1645 15 -94 -44 -122 -352 -169 -522 -79 -812 -106
-1160 -106 -466 0 -865 71 -1107 197 -129 67 -218 194 -218 311 0 93 14 120
114 217 157 153 504 441 791 656 323 243 782 549 823 549 13 0 32 -4 42 -10z
m-12106 -1310 c14 -124 78 -667 141 -1208 63 -540 115 -988 115 -995 0 -28
-407 -80 -725 -93 -489 -19 -1105 74 -1580 239 -69 24 -70 25 -68 58 2 48 54
93 127 110 45 10 73 10 134 1 107 -17 197 -15 237 4 24 11 56 51 120 147 397
597 869 1245 1395 1914 51 65 66 79 72 65 4 -9 18 -118 32 -242z"/>
</g>
</svg>
