<?xml version="1.0" standalone="no"?>
<!DOCTYPE svg PUBLIC "-//W3C//DTD SVG 20010904//EN"
 "http://www.w3.org/TR/2001/REC-SVG-20010904/DTD/svg10.dtd">
<svg version="1.0" xmlns="http://www.w3.org/2000/svg"
 width="80.000000pt" height="80.000000pt" viewBox="0 0 2828.000000 2828.000000"
 preserveAspectRatio="xMidYMid meet">
<metadata>
Created by potrace 1.13, written by Peter Selinger 2001-2015
</metadata>
<g transform="translate(0.000000,2828.000000) scale(0.100000,-0.100000)"
fill="#323a45" stroke="none">
<path d="M22440 19183 c-1039 -24 -1909 -82 -3835 -253 -1239 -110 -1575 -138
-2065 -175 -1716 -126 -2947 -145 -4170 -65 -529 35 -894 71 -2015 195 -1551
172 -2059 214 -3205 266 -378 17 -1791 23 -2245 10 -1268 -37 -2643 -146
-3245 -257 -667 -123 -1130 -368 -1403 -741 -62 -85 -148 -258 -186 -372 -52
-158 -66 -248 -65 -426 1 -140 4 -172 27 -259 59 -222 132 -326 368 -530 272
-234 499 -580 644 -981 138 -382 209 -721 330 -1575 31 -217 69 -476 86 -575
134 -813 302 -1297 604 -1741 96 -141 120 -234 91 -359 -36 -152 -127 -294
-379 -589 -272 -318 -333 -401 -402 -550 -53 -112 -65 -163 -65 -264 0 -103
19 -165 80 -256 283 -422 889 -605 1616 -486 289 47 432 92 1039 325 609 234
901 315 1242 345 157 14 302 6 493 -27 359 -61 518 -80 827 -95 557 -27 1168
40 1748 192 675 177 1339 475 1935 869 1059 700 1888 1711 2305 2812 62 164
105 249 172 337 185 243 493 392 948 459 95 14 184 17 425 17 629 0 1025 -81
1204 -245 74 -67 94 -104 156 -284 392 -1125 1200 -2175 2253 -2928 1372 -981
3047 -1413 4602 -1186 77 11 221 36 320 56 164 33 196 36 355 36 380 1 683
-87 1387 -404 547 -246 852 -344 1188 -380 215 -23 461 6 645 75 282 106 511
378 593 705 16 67 21 115 21 221 0 121 -3 143 -27 214 -51 147 -117 230 -253
322 -201 135 -301 307 -334 574 -20 166 -7 396 35 620 15 76 351 1506 535
2270 161 672 299 1133 450 1506 206 512 437 894 752 1246 131 146 169 206 209
321 94 271 46 601 -127 887 -179 297 -528 531 -1009 678 -491 151 -1452 308
-2335 382 -679 57 -1570 81 -2320 63z m-16295 -374 c919 -29 1741 -90 3685
-274 2484 -235 3329 -289 4585 -289 1152 0 1768 43 3695 260 1732 195 2148
232 3135 285 316 17 1612 23 1996 10 1144 -40 2179 -137 3259 -307 517 -81
722 -134 943 -245 383 -193 545 -545 420 -916 -63 -190 -175 -361 -473 -728
-297 -365 -412 -544 -538 -840 -184 -433 -275 -835 -412 -1830 -66 -481 -104
-719 -150 -943 -189 -921 -518 -1495 -1112 -1945 -180 -136 -365 -249 -618
-375 -714 -358 -1510 -570 -2365 -632 -181 -13 -710 -13 -890 0 -1210 88
-2299 476 -3255 1159 -966 689 -1739 1652 -2204 2743 -106 250 -161 409 -291
838 -151 497 -227 702 -340 918 -195 368 -443 585 -770 674 -103 28 -305 35
-425 14 -296 -52 -584 -217 -835 -477 -306 -318 -470 -666 -691 -1472 -219
-799 -308 -1042 -528 -1442 -316 -573 -793 -1113 -1361 -1541 -1295 -976
-3108 -1483 -4875 -1363 -1247 84 -2251 469 -2890 1109 -345 345 -584 753
-766 1305 -130 395 -203 738 -339 1585 -121 756 -178 1042 -270 1375 -189 679
-470 1163 -875 1508 -152 130 -197 191 -236 322 -24 81 -24 245 1 340 80 316
324 539 750 685 230 79 761 198 1240 279 1143 192 2319 257 3800 210z m8135
-2829 c364 -58 674 -356 775 -745 38 -148 39 -351 2 -464 -14 -44 -41 -49
-134 -28 -54 13 -70 13 -130 0 -347 -74 -751 -82 -1101 -22 -330 56 -443 110
-504 244 -20 44 -23 65 -22 170 0 108 3 128 30 201 51 136 109 228 214 335
131 132 239 202 409 263 141 51 318 68 461 46z m-11495 -5280 c358 -272 793
-507 1189 -643 l119 -40 -29 -24 c-264 -213 -689 -376 -1079 -413 -424 -39
-883 54 -1222 248 -122 70 -133 77 -133 83 0 11 229 315 331 439 132 162 230
272 391 443 l140 147 91 -78 c51 -44 142 -116 202 -162z m23000 145 c140 -36
278 -127 438 -290 126 -127 216 -246 273 -360 114 -230 84 -398 -86 -485 -90
-46 -389 -101 -660 -121 -421 -31 -1000 48 -1259 173 -115 55 -212 149 -235
228 -9 30 -14 68 -10 86 l6 31 113 22 c241 45 465 144 665 291 43 32 147 125
232 207 88 84 175 160 204 175 103 56 212 70 319 43z"/>
<path d="M21300 18429 c-1104 -20 -2291 -152 -2976 -329 -1011 -262 -1643
-756 -1892 -1480 -238 -694 -149 -1539 284 -2691 394 -1048 747 -1658 1240
-2140 735 -718 1831 -1134 3359 -1273 1198 -110 2275 47 3056 445 1044 532
1589 1445 1759 2948 82 734 106 1641 55 2125 -129 1224 -664 1896 -1720 2161
-495 123 -1427 217 -2305 230 -179 3 -363 7 -410 8 -47 2 -249 0 -450 -4z
m945 -349 c541 -29 1086 -89 1615 -181 774 -134 1152 -289 1449 -594 298 -306
450 -723 502 -1375 15 -188 15 -1053 -1 -1410 -24 -543 -72 -923 -165 -1305
-215 -888 -697 -1579 -1338 -1920 -361 -192 -795 -293 -1442 -335 -475 -31
-1279 -40 -1641 -20 -1068 60 -1848 283 -2481 708 -308 207 -601 487 -843 807
-409 540 -737 1246 -1024 2205 -228 761 -280 1184 -196 1601 60 296 193 542
415 765 434 438 1059 684 2250 884 591 99 1178 159 1780 180 263 10 840 4
1120 -10z"/>
<path d="M6145 18419 c-689 -30 -1416 -107 -1866 -199 -795 -163 -1342 -472
-1651 -935 -207 -311 -322 -696 -375 -1255 -25 -267 -25 -1194 0 -1530 76
-1007 203 -1643 436 -2174 263 -601 674 -1036 1258 -1334 566 -288 1213 -442
2113 -503 213 -14 768 -14 980 0 1286 87 2313 449 3128 1100 134 108 385 352
510 496 521 605 920 1416 1237 2520 228 791 282 1268 194 1721 -59 306 -212
615 -425 854 -394 442 -1044 769 -1909 960 -502 111 -1294 215 -1980 260 -454
29 -1208 38 -1650 19z m1220 -350 c723 -31 1485 -116 2155 -240 819 -151 1379
-386 1748 -734 484 -456 620 -1083 426 -1953 -63 -281 -214 -762 -369 -1172
-589 -1559 -1319 -2346 -2560 -2756 -464 -153 -936 -236 -1620 -286 -244 -18
-1262 -18 -1480 0 -767 62 -1265 206 -1695 490 -498 330 -902 900 -1124 1589
-197 614 -267 1286 -252 2443 3 272 11 549 16 615 43 516 175 847 453 1141
388 410 1004 667 1878 784 624 83 1609 115 2424 79z"/>
<path d="M1170 18135 c-224 -50 -412 -243 -475 -486 -57 -217 -7 -408 144
-560 85 -85 194 -146 311 -173 84 -20 249 -20 325 -1 193 49 336 180 402 366
35 99 43 271 18 383 -36 164 -151 328 -280 400 -133 74 -309 102 -445 71z
m186 -419 c109 -51 184 -150 184 -243 0 -61 -9 -93 -25 -93 -7 0 -18 -7 -26
-16 -7 -8 -36 -27 -63 -42 -43 -23 -64 -27 -136 -27 -59 0 -100 6 -132 18
l-48 19 0 183 0 183 43 21 c58 29 137 28 203 -3z"/>
<path d="M26918 18118 c-89 -10 -164 -40 -253 -99 -285 -191 -376 -563 -204
-830 80 -124 190 -214 325 -265 92 -36 248 -44 344 -19 268 70 473 320 474
580 0 101 -16 169 -64 270 -118 247 -366 392 -622 363z m191 -383 c83 -25 183
-135 122 -135 -16 0 -17 -4 -9 -42 30 -128 -106 -279 -236 -264 -93 10 -165
85 -185 192 -35 181 119 305 308 249z"/>
</g>
</svg>
