<?xml version="1.0" standalone="no"?>
<!DOCTYPE svg PUBLIC "-//W3C//DTD SVG 20010904//EN"
 "http://www.w3.org/TR/2001/REC-SVG-20010904/DTD/svg10.dtd">
<svg version="1.0" xmlns="http://www.w3.org/2000/svg"
 width="700.000000pt" height="700.000000pt" viewBox="0 0 477.000000 477.000000"
 preserveAspectRatio="xMidYMid meet">
<metadata>
Created by potrace 1.13, written by Peter Selinger 2001-2015
</metadata>
<g transform="translate(0.000000,477.000000) scale(0.100000,-0.100000)"
fill="#1b9af7" stroke="none" opacity=".2">
<path d="M2908 4277 c-80 -50 -127 -93 -134 -124 -5 -18 -13 -23 -38 -23 -17
0 -240 5 -496 10 -256 6 -538 10 -626 10 -139 0 -163 2 -168 16 -3 9 -12 14
-20 11 -8 -3 -17 -3 -20 0 -10 10 -70 11 -89 1 -17 -9 -17 -8 -2 22 11 21 13
36 7 42 -16 16 -382 -86 -389 -109 -5 -14 43 -41 142 -82 44 -19 83 -38 87
-44 4 -6 10 -8 13 -5 4 4 43 -6 86 -22 43 -16 79 -27 79 -24 0 2 -7 21 -15 41
-21 49 -20 52 20 46 24 -4 35 -2 35 7 0 10 3 10 15 0 9 -7 15 -8 15 -2 0 13
199 14 852 6 l516 -7 17 -43 c15 -39 64 -94 84 -94 5 0 -2 21 -15 47 -23 45
-32 93 -16 93 4 0 8 -13 9 -30 3 -39 38 -107 62 -120 29 -15 31 -13 17 16 -8
14 -12 34 -9 44 5 18 8 17 42 -10 33 -26 198 -110 217 -110 4 0 -4 12 -18 28
-41 44 -50 67 -37 99 l12 28 7 -25 c12 -43 37 -84 67 -110 l28 -25 -21 25
c-41 47 -51 81 -45 140 l7 55 5 -66 c3 -41 12 -77 24 -95 10 -16 19 -24 21
-19 1 6 7 37 14 69 l12 59 22 -44 c12 -24 37 -54 54 -66 38 -25 110 -36 167
-25 l40 8 -50 7 c-93 13 -195 93 -195 153 0 10 10 -2 23 -26 22 -45 80 -92
127 -105 16 -5 9 3 -21 23 -51 33 -89 80 -89 109 1 12 5 8 14 -12 22 -50 99
-110 166 -130 22 -6 20 -2 -13 25 -32 27 -87 105 -87 123 0 3 12 7 28 9 23 2
28 8 30 36 2 20 25 65 58 113 30 44 54 84 54 90 0 5 -18 -2 -39 -16 -25 -17
-68 -31 -122 -41 -46 -8 -93 -21 -106 -29 -21 -14 -23 -14 -23 0 0 9 7 30 16
47 l16 30 -32 -18 c-55 -33 -100 -75 -120 -112 -10 -21 -19 -30 -20 -22 -1 43
104 139 184 170 49 18 26 19 -28 0 -57 -19 -136 -67 -136 -81 0 -5 -4 -9 -9
-9 -4 0 -6 22 -3 49 l4 50 -79 -77 c-44 -42 -82 -83 -85 -91 -2 -7 -12 -11
-23 -9 -17 4 -14 10 25 48 l45 44 -44 -24 c-24 -14 -52 -36 -62 -49 -11 -13
-22 -22 -24 -19 -10 10 75 77 134 107 63 32 93 59 46 41 -15 -6 -37 -10 -51
-10 -14 0 -43 -9 -65 -21 l-40 -20 11 20 c6 12 8 21 5 21 -13 0 -126 -93 -142
-116 -8 -14 -18 -22 -21 -20 -11 12 32 59 103 111 41 30 75 60 75 65 0 13 6
15 -72 -33z m-1619 -87 c-18 -32 -29 -40 -50 -40 -18 0 -30 6 -33 18 -10 30
-5 37 38 48 68 19 69 18 45 -26z m2221 20 c0 -5 -7 -10 -15 -10 -8 0 -33 -18
-56 -40 -49 -47 -56 -50 -33 -15 9 14 35 37 58 50 47 29 46 28 46 15z m-96
-19 c-17 -10 -40 -32 -52 -47 -12 -16 -22 -24 -22 -17 0 18 68 83 88 83 11 0
7 -6 -14 -19z m-2237 -24 c7 -15 7 -29 1 -40 -6 -11 -5 -23 1 -34 10 -19 -2
-53 -20 -53 -23 0 -209 84 -202 91 11 10 163 57 189 58 13 1 25 -8 31 -22z
m168 -37 c3 -6 3 -19 0 -30 -5 -15 -15 -20 -39 -20 -47 0 -63 20 -34 42 25 19
63 24 73 8z m52 -37 c-3 -10 -5 -4 -5 12 0 17 2 24 5 18 2 -7 2 -21 0 -30z
m30 0 c-3 -10 -5 -4 -5 12 0 17 2 24 5 18 2 -7 2 -21 0 -30z m227 21 c11 -29
-4 -34 -100 -34 -94 0 -94 0 -94 25 0 25 0 25 94 25 77 0 95 -3 100 -16z m23
-21 c-3 -10 -5 -4 -5 12 0 17 2 24 5 18 2 -7 2 -21 0 -30z m193 12 l34 -25
-102 0 -102 0 0 25 c0 24 2 25 68 25 57 0 74 -4 102 -25z m70 18 c0 -5 -5 -15
-10 -23 -8 -13 -13 -12 -32 8 l-22 22 32 0 c18 0 32 -3 32 -7z m128 -10 c-4
-24 -20 -25 -48 -3 l-25 20 38 0 c31 0 38 -3 35 -17z m125 -9 c-6 -17 -13 -17
-35 0 -25 19 -22 23 11 18 20 -3 28 -8 24 -18z m-983 -5 c0 -5 -4 -9 -10 -9
-5 0 -10 7 -10 16 0 8 5 12 10 9 6 -3 10 -10 10 -16z m797 -4 l28 -25 -47 3
c-27 1 -48 3 -48 5 0 11 22 42 30 42 5 0 22 -11 37 -25z m148 -15 c4 -6 -13
-10 -45 -10 l-51 0 18 24 c17 22 20 23 45 10 15 -8 30 -18 33 -24z m112 15
l28 -24 -49 -1 c-40 0 -47 3 -42 16 3 9 6 20 6 25 0 17 29 9 57 -16z m73 16
c0 -23 -26 -29 -49 -10 l-23 19 36 0 c20 0 36 -4 36 -9z m850 -6 c47 -2 129
-4 183 -4 79 -1 97 -4 97 -16 0 -13 -69 -15 -565 -15 -311 0 -565 2 -565 5 0
3 6 14 13 25 12 20 19 20 382 15 204 -4 408 -8 455 -10z m-1929 -45 c16 -9 49
-58 49 -74 0 -5 -93 29 -113 41 -9 6 21 43 35 43 5 0 18 -5 29 -10z m1625 -40
c1 -16 -3 -27 -7 -24 -11 6 -12 54 -1 54 4 0 7 -13 8 -30z m283 -17 c-1 -41
-2 -44 -8 -18 -7 28 -4 65 5 65 2 0 3 -21 3 -47z"/>
<path d="M3238 3574 c-29 -58 -60 -110 -70 -115 -14 -8 -7 12 26 79 42 83 46
102 24 102 -4 0 -33 -49 -63 -110 -33 -66 -61 -110 -70 -110 -11 0 -4 22 27
85 39 78 45 107 19 91 -6 -4 -32 -52 -57 -107 -26 -55 -56 -105 -66 -110 -25
-13 -24 -10 22 81 43 86 47 100 27 100 -7 0 -37 -49 -67 -110 -30 -60 -60
-112 -67 -114 -19 -8 -16 4 22 83 42 85 44 92 29 98 -7 2 -34 -43 -64 -105
l-52 -108 -264 -132 c-145 -73 -273 -132 -283 -132 -14 0 -979 479 -1000 497
-4 3 79 -3 167 -12 32 -4 44 -1 49 11 3 8 3 17 0 20 -8 8 -318 34 -329 28 -4
-3 -8 -11 -8 -19 0 -19 209 -247 223 -242 24 8 14 27 -50 97 -37 40 -61 71
-53 68 28 -9 889 -443 890 -448 0 -3 -227 -5 -505 -5 -277 0 -501 3 -497 6 4
4 40 19 80 34 78 30 102 49 85 66 -7 7 -50 -6 -134 -40 -155 -64 -174 -74
-174 -90 0 -15 291 -135 306 -126 24 16 2 35 -76 65 -47 18 -87 36 -89 39 -2
3 229 6 515 6 285 0 519 -1 519 -2 0 -4 -899 -453 -906 -453 -3 0 21 31 55 69
60 67 75 101 47 101 -17 0 -216 -227 -216 -246 0 -17 2 -17 165 -3 162 13 175
16 175 35 0 14 -13 15 -102 10 l-103 -6 483 242 482 243 265 -133 264 -132 53
-95 c29 -52 59 -95 66 -95 19 0 15 17 -24 86 -20 36 -34 67 -31 70 6 6 31 -31
94 -138 28 -48 43 -64 52 -59 10 7 4 25 -28 79 -22 39 -41 74 -41 77 0 20 35
-27 81 -106 53 -93 64 -106 74 -89 4 6 -12 42 -34 81 -23 39 -35 69 -28 67 6
-3 37 -47 67 -98 53 -90 80 -119 80 -86 0 9 -18 45 -41 82 -22 36 -34 64 -27
62 7 -2 39 -47 71 -99 31 -52 62 -95 67 -97 20 -7 9 25 -39 110 -27 49 -46 90
-43 92 4 2 53 11 110 21 70 13 102 22 102 32 0 17 -16 17 -139 -7 -66 -12
-109 -16 -120 -11 -18 11 -10 14 103 34 38 6 71 18 74 25 5 17 -45 15 -148 -6
-47 -10 -93 -16 -102 -14 -38 8 -14 19 65 31 46 7 90 16 97 21 34 21 -9 23
-119 4 -64 -11 -123 -18 -129 -16 -29 9 -6 20 73 32 77 12 119 30 98 43 -4 3
-51 -3 -103 -13 -105 -21 -156 -24 -164 -12 -3 5 27 15 67 21 107 19 117 22
117 37 0 17 8 18 -125 -7 l-112 -21 -231 116 c-128 64 -232 117 -232 119 0 1
120 0 267 -3 l268 -5 86 -57 c80 -52 99 -59 99 -37 0 5 -30 29 -67 54 -37 25
-60 45 -50 45 10 0 59 -27 108 -61 61 -41 94 -58 101 -51 10 10 -36 49 -104
90 -31 18 -38 35 -10 25 9 -4 57 -33 106 -65 82 -53 106 -61 106 -38 0 4 -31
28 -70 52 -38 24 -69 46 -70 50 0 14 50 -11 131 -66 75 -50 99 -59 99 -37 0 4
-31 29 -70 55 -38 25 -70 48 -70 51 0 10 52 -17 131 -68 46 -30 87 -53 91 -50
19 11 3 27 -77 78 -47 30 -85 58 -85 63 1 4 39 35 85 70 47 34 85 67 85 72 0
22 -31 7 -111 -54 -81 -60 -130 -87 -128 -69 0 4 34 32 75 62 41 30 74 58 74
63 0 21 -38 2 -124 -62 -86 -65 -117 -82 -115 -62 0 4 33 31 74 61 66 49 83
71 54 71 -6 0 -46 -27 -89 -60 -76 -58 -130 -88 -130 -72 0 4 32 31 70 60 68
50 85 72 57 72 -7 0 -55 -31 -106 -70 -50 -38 -96 -70 -101 -70 -22 0 -6 18
60 69 39 29 70 57 70 62 0 21 -32 5 -113 -56 l-86 -65 -245 -2 c-135 -2 -246
-1 -245 2 0 3 104 56 230 118 l229 113 110 -12 c61 -7 113 -10 116 -6 15 15
-13 26 -87 32 -56 5 -78 10 -70 18 7 7 39 7 105 -1 121 -15 136 -15 136 2 0
14 -60 26 -126 26 -19 0 -34 5 -34 11 0 8 26 9 93 4 130 -12 150 -12 154 1 3
8 -16 14 -49 18 -119 15 -134 18 -113 26 11 4 67 2 125 -5 94 -11 136 -7 118
11 -4 3 -43 11 -88 16 -117 15 -82 25 49 14 104 -8 134 -6 118 11 -4 3 -54 11
-111 16 l-103 10 43 94 c24 52 44 101 44 109 0 37 -25 5 -72 -92z"/>
<path d="M813 2203 c-18 -2 -33 -8 -33 -13 0 -4 20 -33 46 -64 l45 -56 -45 0
c-35 0 -48 -5 -56 -20 -19 -35 4 -60 52 -60 l42 0 -31 -32 c-17 -18 -36 -43
-42 -55 -10 -20 -9 -23 11 -28 13 -3 179 -5 369 -3 l346 3 66 58 65 57 1036 0
1037 0 42 22 42 21 -45 21 c-45 21 -56 21 -1075 24 l-1030 3 -27 22 c-14 12
-48 40 -74 62 l-47 40 -331 1 c-182 1 -346 -1 -363 -3z m14 -19 c-3 -3 -12 -4
-19 -1 -8 3 -5 6 6 6 11 1 17 -2 13 -5z m119 -11 c5 -10 20 -35 33 -55 l23
-38 -34 0 c-27 0 -38 8 -63 42 -50 70 -50 68 -8 68 26 0 42 -6 49 -17z m57
-37 c15 -27 25 -51 22 -54 -6 -7 -4 -9 -44 57 -18 29 -26 51 -19 49 7 -3 25
-26 41 -52z m40 3 c16 -28 26 -54 23 -57 -7 -7 -5 -9 -44 56 -19 31 -27 52
-19 52 6 0 25 -23 40 -51z m177 42 c0 -4 12 -20 26 -34 15 -15 23 -31 18 -38
-4 -7 -3 -9 3 -6 6 4 16 0 23 -8 11 -13 -1 -15 -91 -15 l-104 0 -25 48 c-13
26 -29 50 -35 54 -5 4 34 8 88 8 53 0 97 -4 97 -9z m79 -43 c42 -56 47 -82 5
-33 -47 58 -65 85 -55 85 5 0 28 -24 50 -52z m30 35 c-7 -10 -14 -19 -15 -21
0 -1 -9 7 -19 18 -18 20 -17 20 15 20 29 0 31 -2 19 -17z m230 -35 c34 -28 61
-53 61 -55 0 -1 -33 -3 -72 -3 l-73 1 -60 54 -60 55 72 0 71 0 61 -52z m-185
-13 c-10 -6 -14 -17 -10 -23 10 -17 36 -15 36 3 0 21 13 19 35 -5 18 -20 17
-20 -27 -20 -38 0 -49 4 -63 26 -16 24 -16 26 2 39 13 9 22 10 31 3 10 -8 9
-13 -4 -23z m2146 -90 l0 -25 -1364 0 c-1019 0 -1367 3 -1372 12 -24 38 -22
38 1383 38 l1353 0 0 -25z m27 -12 c-3 -10 -5 -4 -5 12 0 17 2 24 5 18 2 -7 2
-21 0 -30z m117 28 c15 -23 -7 -41 -50 -41 -40 0 -44 2 -44 25 0 23 4 25 44
25 25 0 47 -4 50 -9z m80 -28 c-27 -20 -64 -17 -64 5 0 28 8 31 46 19 33 -10
34 -12 18 -24z m-2844 -48 c-7 -8 -16 -15 -21 -15 -5 0 -6 7 -3 15 4 8 13 15
21 15 13 0 13 -3 3 -15z m84 3 c-4 -7 -16 -26 -27 -41 -10 -16 -17 -31 -13
-34 3 -3 18 15 33 40 15 26 34 47 41 47 14 0 4 -24 -31 -71 -16 -23 -27 -27
-73 -28 -58 -1 -64 5 -36 31 9 9 25 28 35 42 13 18 27 26 48 26 21 0 28 -4 23
-12z m72 -13 c-9 -14 -23 -36 -32 -50 -9 -14 -20 -25 -25 -25 -12 0 53 100 65
100 4 0 1 -11 -8 -25z m216 -5 c-18 -17 -29 -30 -25 -30 4 0 -3 -9 -15 -20
-19 -18 -33 -20 -112 -18 l-90 3 33 47 32 47 105 0 105 0 -33 -29z m27 -20
c-23 -28 -44 -48 -47 -46 -6 6 70 96 81 96 4 0 -11 -23 -34 -50z m77 28 c-1
-14 6 -24 17 -26 22 -4 35 27 16 39 -10 6 -4 9 19 9 l33 0 -19 -27 c-38 -53
-65 -71 -115 -75 -26 -2 -46 0 -45 3 5 12 83 99 89 99 3 0 5 -10 5 -22z m187
-28 c-54 -46 -62 -50 -111 -50 l-54 0 41 48 40 49 71 1 71 2 -58 -50z"/>
<path d="M1080 2139 c0 -5 5 -7 10 -4 6 3 10 8 10 11 0 2 -4 4 -10 4 -5 0 -10
-5 -10 -11z"/>
<path d="M1115 2140 c3 -5 8 -10 11 -10 2 0 4 5 4 10 0 6 -5 10 -11 10 -5 0
-7 -4 -4 -10z"/>
<path d="M1445 2130 c3 -5 8 -10 11 -10 2 0 4 5 4 10 0 6 -5 10 -11 10 -5 0
-7 -4 -4 -10z"/>
<path d="M1470 2126 c0 -11 30 -39 36 -34 2 3 -5 13 -16 23 -11 10 -20 15 -20
11z"/>
<path d="M1337 1933 c-14 -13 -6 -33 12 -33 19 0 35 23 24 34 -8 8 -28 8 -36
-1z"/>
<path d="M1500 1970 c0 -5 5 -10 10 -10 6 0 10 5 10 10 0 6 -4 10 -10 10 -5 0
-10 -4 -10 -10z"/>
<path d="M1480 1950 c0 -5 5 -10 11 -10 5 0 7 5 4 10 -3 6 -8 10 -11 10 -2 0
-4 -4 -4 -10z"/>
<path d="M3380 1620 c-25 -3 -59 -14 -77 -23 -41 -22 -46 -21 -38 3 8 24 3 24
-61 5 -27 -8 -50 -11 -52 -6 -5 16 -88 -19 -117 -49 -32 -33 -59 -42 -30 -10
10 11 16 22 13 25 -10 10 -134 -28 -201 -61 l-67 -34 -548 0 c-393 0 -551 3
-559 11 -7 7 -22 9 -40 4 -29 -8 -303 -13 -303 -6 0 2 16 24 36 48 20 24 34
47 31 49 -8 9 -276 -62 -340 -89 -72 -31 -58 -40 187 -123 72 -24 131 -44 133
-44 9 0 0 25 -26 69 l-29 49 730 1 730 2 45 -27 c25 -15 59 -28 75 -29 15 -1
36 -9 46 -18 21 -19 148 -51 169 -43 8 4 11 11 7 18 -4 7 6 2 22 -9 17 -12 43
-25 60 -29 28 -7 28 -6 13 12 -43 51 -38 53 30 7 19 -13 37 -19 40 -14 4 5 27
4 57 -2 71 -15 104 -4 104 32 0 22 4 29 18 27 9 -2 18 -13 20 -24 3 -18 10
-22 38 -22 41 0 39 7 -22 72 l-40 43 112 0 c76 0 117 4 125 12 22 22 0 27
-117 28 -62 0 -114 3 -114 6 0 3 12 16 26 30 36 33 68 89 58 99 -13 11 -92 17
-144 10z m-2076 -105 l-36 -45 -111 0 c-63 0 -107 4 -102 9 6 4 57 21 115 36
58 15 116 31 130 35 42 14 43 11 4 -35z m-7 -120 c12 -22 23 -43 23 -46 0 -4
-48 10 -107 31 -173 61 -171 59 -48 57 l109 -2 23 -40z"/>
<path d="M3442 1330 c0 -14 2 -19 5 -12 2 6 2 18 0 25 -3 6 -5 1 -5 -13z"/>
<path d="M1983 938 c-106 -109 -121 -132 -101 -156 98 -117 193 -222 200 -222
14 0 9 21 -12 47 -11 14 -48 57 -82 96 -94 105 -91 96 -55 141 17 21 59 66 94
99 57 55 77 87 55 87 -5 0 -49 -42 -99 -92z"/>
<path d="M1781 925 c-50 -53 -94 -106 -97 -120 -5 -20 7 -39 67 -107 41 -46
87 -99 102 -117 19 -23 31 -31 38 -24 7 7 -20 46 -85 121 -53 60 -96 115 -96
121 0 6 43 55 95 109 52 55 95 102 95 106 0 23 -40 -7 -119 -89z"/>
<path d="M1894 948 c-39 -40 -83 -90 -98 -110 -27 -37 -28 -38 -9 -61 58 -73
187 -217 194 -217 23 0 1 34 -86 134 l-94 109 71 79 c39 43 81 87 94 97 13 11
24 24 24 30 0 26 -31 6 -96 -61z"/>
<path d="M1506 930 c-108 -105 -133 -142 -114 -168 30 -42 192 -222 200 -222
22 0 0 34 -87 134 -110 126 -112 98 18 232 110 113 95 134 -17 24z"/>
<path d="M1591 921 c-133 -137 -132 -118 -12 -258 57 -65 107 -119 112 -121
28 -11 -2 36 -86 132 -52 60 -95 112 -95 116 0 3 43 51 95 106 52 54 95 102
95 107 0 22 -31 -2 -109 -82z"/>
<path d="M1725 962 c-77 -72 -145 -153 -145 -171 0 -9 37 -56 81 -106 45 -49
88 -100 96 -112 14 -21 43 -32 43 -16 0 10 -48 70 -122 152 -37 42 -68 80 -68
85 0 5 43 52 95 105 52 54 95 100 95 104 0 18 -30 2 -75 -41z"/>
<path d="M1295 907 c-52 -53 -97 -108 -101 -122 -5 -21 9 -42 92 -137 89 -104
124 -134 124 -110 0 5 -43 59 -95 120 -52 61 -95 115 -95 120 0 5 43 54 95
108 63 65 92 101 85 108 -7 7 -42 -23 -105 -87z"/>
<path d="M1387 901 c-54 -55 -97 -108 -97 -119 0 -10 33 -57 73 -103 39 -47
85 -100 100 -118 19 -23 31 -31 38 -24 7 7 -21 46 -86 122 -70 81 -95 116 -90
130 3 10 46 59 95 108 79 81 94 103 70 103 -4 0 -50 -45 -103 -99z"/>
<path d="M2720 890 c-45 -50 -80 -96 -77 -103 3 -6 40 -51 82 -99 56 -64 84
-88 101 -88 13 0 24 5 24 12 0 9 3 9 12 0 7 -7 27 -12 46 -12 l35 0 -47 53
c-25 28 -62 71 -82 94 l-36 43 64 82 c90 116 89 108 20 108 l-59 0 -83 -90z
m110 55 c0 -8 -7 -15 -16 -15 -14 0 -14 3 -4 15 7 8 14 15 16 15 2 0 4 -7 4
-15z m-40 -50 c0 -8 -7 -15 -16 -15 -14 0 -14 3 -4 15 7 8 14 15 16 15 2 0 4
-7 4 -15z m-44 -62 c-10 -10 -19 5 -10 18 6 11 8 11 12 0 2 -7 1 -15 -2 -18z
m-40 -50 c-10 -10 -19 5 -10 18 6 11 8 11 12 0 2 -7 1 -15 -2 -18z m44 -44 c0
-5 -4 -9 -10 -9 -5 0 -10 7 -10 16 0 8 5 12 10 9 6 -3 10 -10 10 -16z m40 -45
c0 -14 -3 -14 -15 -4 -8 7 -15 14 -15 16 0 2 7 4 15 4 8 0 15 -7 15 -16z m40
-51 c0 -13 -3 -13 -15 -3 -8 7 -12 16 -9 21 8 13 24 1 24 -18z"/>
<path d="M2910 885 l-82 -95 83 -95 c61 -71 88 -95 106 -95 22 0 17 9 -51 89
-42 49 -76 95 -76 103 0 7 32 50 70 95 39 45 70 84 70 87 0 3 -9 6 -19 6 -12
0 -51 -37 -101 -95z"/>
<path d="M2991 894 c-41 -47 -74 -92 -75 -99 0 -7 33 -54 74 -104 66 -80 79
-91 108 -91 17 0 32 3 32 6 0 3 -36 46 -81 94 l-80 88 70 90 c39 49 71 92 71
96 0 3 -10 6 -23 6 -17 0 -44 -24 -96 -86z"/>
<path d="M3108 894 c-40 -47 -73 -92 -73 -99 0 -8 35 -55 78 -104 l78 -91 64
0 c36 0 65 3 65 7 0 3 -36 45 -80 94 -44 48 -80 90 -80 93 0 4 34 46 74 94
l75 87 -30 3 c-17 2 -37 -2 -45 -9 -10 -8 -14 -8 -14 0 0 6 -9 11 -20 11 -12
0 -46 -31 -92 -86z m102 37 c0 -12 -20 -25 -27 -18 -7 7 6 27 18 27 5 0 9 -4
9 -9z m-40 -49 c0 -13 -12 -22 -22 -16 -10 6 -1 24 13 24 5 0 9 -4 9 -8z m-40
-51 c0 -6 -4 -13 -10 -16 -5 -3 -10 1 -10 9 0 9 5 16 10 16 6 0 10 -4 10 -9z
m-25 -51 c3 -5 2 -10 -4 -10 -5 0 -13 5 -16 10 -3 6 -2 10 4 10 5 0 13 -4 16
-10z m42 -56 c-9 -9 -28 6 -21 18 4 6 10 6 17 -1 6 -6 8 -13 4 -17z m41 -43
c3 -8 -1 -12 -9 -9 -7 2 -15 10 -17 17 -3 8 1 12 9 9 7 -2 15 -10 17 -17z m42
-47 c0 -14 -3 -14 -15 -4 -8 7 -15 14 -15 16 0 2 7 4 15 4 8 0 15 -7 15 -16z"/>
</g>
</svg>
