<?xml version="1.0" standalone="no"?>
<!DOCTYPE svg PUBLIC "-//W3C//DTD SVG 20010904//EN"
 "http://www.w3.org/TR/2001/REC-SVG-20010904/DTD/svg10.dtd">
<svg version="1.0" xmlns="http://www.w3.org/2000/svg"
 width="2828.000000" height="2828.000000" viewBox="0 0 2828.000000 2828.000000"
 preserveAspectRatio="xMidYMid meet">
<metadata>
Created by potrace 1.13, written by Peter Selinger 2001-2015
</metadata>
<g transform="translate(0.000000,2828.000000) scale(0.100000,-0.100000)"
fill="#cccccc" stroke="none">
<path d="M22845 23433 c-132 -6 -400 -35 -550 -59 -832 -136 -1628 -473 -2300
-974 -213 -158 -369 -293 -565 -490 -203 -202 -351 -373 -498 -577 -52 -73
-98 -130 -102 -128 -4 2 -10 46 -14 97 -13 199 -70 470 -139 674 -119 349
-280 617 -507 844 -181 182 -372 304 -575 369 -135 44 -206 54 -360 54 -350
-1 -682 -134 -932 -376 -203 -196 -303 -411 -303 -652 0 -59 10 -161 25 -250
32 -198 71 -517 90 -740 56 -671 59 -1511 10 -2590 -19 -401 -441 -9904 -455
-10220 -45 -1065 47 -1735 314 -2290 136 -282 270 -472 480 -680 252 -251 498
-396 805 -478 112 -30 124 -31 326 -31 188 -1 220 2 305 23 283 70 500 185
686 363 340 325 433 716 282 1188 -43 135 -91 253 -211 517 -193 424 -286 691
-366 1053 -72 328 -101 579 -108 941 -6 288 2 461 33 699 15 118 62 392 69
398 2 2 75 -31 162 -73 629 -307 1262 -535 1938 -700 1203 -293 2445 -349
3395 -154 810 167 1496 510 2164 1082 584 500 1141 1243 1503 2006 622 1308
890 2923 823 4966 -44 1337 -184 2195 -485 2965 -411 1051 -1212 1967 -2234
2554 -844 485 -1757 711 -2706 669z m354 -2023 c267 -47 476 -117 746 -250
788 -387 1443 -1143 1739 -2008 263 -768 325 -1666 191 -2747 -84 -674 -316
-1785 -520 -2489 -399 -1380 -962 -2200 -1797 -2618 -669 -334 -1567 -416
-2613 -238 -1070 182 -1733 643 -2159 1500 -369 741 -502 1669 -395 2745 191
1931 1064 3788 2415 5139 354 354 668 589 1009 756 238 117 475 192 690 219
50 6 101 13 115 15 14 3 122 3 240 1 165 -2 244 -8 339 -25z"/>
<path d="M7822 23060 c-281 -36 -587 -160 -857 -348 -147 -102 -269 -206 -426
-362 -259 -258 -480 -536 -765 -960 -1168 -1741 -2148 -3749 -3124 -6400 -374
-1017 -706 -1995 -1424 -4195 -212 -649 -478 -1457 -592 -1795 -457 -1365
-482 -1442 -548 -1753 -67 -312 -91 -549 -82 -797 18 -502 156 -855 449 -1151
354 -359 827 -524 1224 -429 169 40 304 121 439 263 175 183 275 423 318 757
19 145 35 512 36 785 1 730 117 1126 412 1410 213 206 474 323 878 394 174 31
360 48 750 71 1448 83 4726 260 4831 260 465 0 781 -146 927 -428 102 -196
103 -325 7 -532 -83 -179 -109 -270 -126 -448 -24 -251 37 -532 173 -802 85
-169 174 -294 308 -433 139 -145 282 -251 445 -332 216 -107 372 -145 592
-145 327 0 615 122 858 365 120 120 203 235 285 395 145 285 211 607 189 927
-25 358 -150 646 -384 879 l-102 102 171 106 c288 180 455 306 616 466 138
137 227 257 300 405 89 181 105 250 105 475 0 208 -14 285 -80 428 -91 197
-220 314 -425 388 -502 179 -807 656 -944 1479 -35 208 -51 361 -86 806 -167
2154 -388 3662 -740 5054 -322 1272 -760 2423 -1294 3397 -535 976 -1143 1535
-1821 1678 -115 24 -375 34 -493 20z m148 -3056 c205 -48 366 -194 485 -439
87 -178 128 -323 290 -1010 537 -2280 928 -4627 1171 -7020 28 -275 28 -380 0
-470 -21 -70 -76 -132 -124 -141 -20 -4 -151 1 -292 10 -494 32 -610 37 -1180
43 -585 6 -940 -2 -1445 -33 -1086 -65 -2124 -211 -3204 -450 -161 -36 -294
-64 -296 -62 -10 10 388 1224 570 1738 821 2326 1795 4532 2953 6680 377 700
547 997 602 1051 106 104 292 145 470 103z"/>
</g>
</svg>
