<?xml version="1.0" standalone="no"?>
<!DOCTYPE svg PUBLIC "-//W3C//DTD SVG 20010904//EN"
 "http://www.w3.org/TR/2001/REC-SVG-20010904/DTD/svg10.dtd">
<svg version="1.0" xmlns="http://www.w3.org/2000/svg"
 width="2828.000000" height="2828.000000" viewBox="0 0 2828.000000 2828.000000"
 preserveAspectRatio="xMidYMid meet">
<metadata>
Created by potrace 1.13, written by Peter Selinger 2001-2015
</metadata>
<g transform="translate(0.000000,2828.000000) scale(0.100000,-0.100000)"
fill="#cccccc" stroke="none">
<path d="M12945 28244 c-6606 -12 -7430 -18 -7925 -49 -664 -42 -1153 -113
-1645 -237 -1792 -451 -2814 -1592 -3179 -3548 -102 -546 -153 -1095 -176
-1880 -5 -190 -12 -2975 -16 -6450 -6 -6095 -5 -6498 26 -6995 57 -914 203
-1629 457 -2245 61 -148 68 -161 77 -134 867 2919 1926 6204 2651 8219 961
2675 1878 4627 2975 6335 719 1119 1206 1660 1785 1983 599 334 1270 309 1849
-69 491 -322 906 -827 1317 -1605 583 -1104 1086 -2513 1393 -3904 248 -1123
379 -2107 466 -3485 32 -513 51 -762 75 -975 82 -719 229 -1261 469 -1721 242
-464 564 -825 942 -1056 106 -65 176 -126 210 -185 104 -176 82 -428 -60 -712
-96 -192 -187 -312 -403 -531 -292 -297 -439 -510 -519 -750 -25 -75 -28 -100
-28 -210 0 -176 15 -210 179 -410 57 -70 126 -201 158 -305 125 -399 -10 -904
-330 -1236 -115 -119 -194 -178 -328 -245 -167 -82 -305 -115 -515 -121 -184
-6 -286 4 -439 43 -426 107 -821 389 -1073 764 -370 551 -467 1345 -266 2162
17 70 30 129 27 131 -2 2 -832 -23 -1844 -54 -1012 -32 -2436 -76 -3165 -98
-1335 -41 -1513 -49 -1694 -76 -679 -101 -1034 -483 -1155 -1245 -27 -167 -47
-393 -71 -815 -34 -586 -67 -818 -151 -1081 -80 -251 -223 -477 -382 -604 -37
-29 -52 -47 -44 -51 37 -21 576 -149 901 -215 1486 -301 3064 -402 5391 -344
430 11 905 28 1865 65 2448 95 3476 98 4311 15 1116 -112 1910 -401 2927
-1067 287 -188 511 -347 1117 -797 826 -612 1303 -949 2050 -1445 551 -367
1551 -999 1561 -988 2 2 10 712 19 1578 15 1491 19 1659 46 1839 56 376 222
636 495 774 165 84 319 121 706 171 332 43 494 72 726 130 341 86 642 196 967
354 519 252 924 539 1315 931 593 594 958 1271 1130 2099 80 384 121 766 139
1311 15 451 26 13660 12 14050 -30 785 -111 1329 -272 1820 -214 654 -590
1249 -1100 1745 -357 347 -721 601 -1171 819 -786 381 -1656 558 -2968 606
-322 12 -982 11 -9815 -6z m11095 -4914 c1356 -58 1940 -125 2396 -275 516
-170 862 -441 1057 -830 248 -496 193 -1020 -140 -1325 -318 -292 -824 -365
-1458 -211 -66 17 -257 68 -425 115 -579 163 -977 231 -1510 256 -245 12 -473
7 -760 -16 -402 -33 -589 -98 -732 -253 -73 -79 -122 -179 -159 -329 -27 -113
-208 -1265 -343 -2192 -369 -2526 -535 -4221 -587 -5975 -13 -433 -7 -1550 10
-1910 74 -1547 226 -2654 556 -4069 88 -378 98 -442 99 -666 1 -171 -2 -206
-21 -282 -83 -325 -303 -529 -656 -610 -135 -31 -390 -31 -537 1 -364 77 -670
246 -964 531 -517 502 -801 1194 -901 2195 -70 711 -91 2607 -45 4080 71 2263
214 4209 611 8315 35 365 33 425 -17 528 -33 69 -147 185 -219 224 -159 85
-347 108 -570 70 -66 -12 -216 -48 -334 -82 -358 -102 -591 -152 -886 -190
-627 -79 -1378 -32 -1908 120 -463 134 -788 381 -894 682 -35 97 -43 262 -19
370 64 290 339 548 778 732 209 87 440 153 993 280 1862 428 3739 668 5690
726 360 10 1566 4 1895 -10z"/>
<path d="M8645 20379 c-180 -22 -339 -141 -490 -369 -214 -322 -1055 -1967
-1562 -3055 -859 -1843 -1633 -3812 -2243 -5710 -180 -561 -213 -666 -206
-672 3 -3 85 11 183 31 1987 401 3933 545 6045 445 l257 -13 57 30 c93 47 150
150 181 324 21 115 14 242 -37 690 -274 2423 -679 4673 -1257 6985 -113 452
-142 551 -204 702 -178 429 -435 647 -724 612z"/>
</g>
</svg>
