<?xml version="1.0" standalone="no"?>
<!DOCTYPE svg PUBLIC "-//W3C//DTD SVG 20010904//EN"
 "http://www.w3.org/TR/2001/REC-SVG-20010904/DTD/svg10.dtd">
 
<svg version="1.0" xmlns="http://www.w3.org/2000/svg"
 width="160.000000pt" height="160.000000pt" viewBox="0 0 2828.000000 2828.000000"
 preserveAspectRatio="xMidYMid meet">
<metadata>
Created by potrace 1.13, written by Peter Selinger 2001-2015
</metadata>
<g transform="translate(0.000000,2828.000000) scale(0.100000,-0.100000)"
fill="#4b5768" stroke="none">
<path d="M12660 28269 c-1522 -60 -2681 -384 -3635 -1014 -292 -193 -516 -377
-755 -621 -453 -463 -729 -921 -916 -1519 -179 -570 -349 -1498 -463 -2525
-78 -692 -105 -1034 -286 -3625 -130 -1868 -163 -2342 -174 -2545 -34 -590
-17 -1016 55 -1410 101 -550 327 -1081 655 -1542 133 -187 256 -326 564 -638
171 -173 347 -360 391 -415 314 -396 450 -813 470 -1450 8 -224 -5 -483 -48
-1030 -28 -353 -32 -445 -32 -785 -1 -306 3 -412 16 -515 74 -568 233 -1066
529 -1656 232 -465 403 -745 1055 -1724 589 -884 802 -1233 1028 -1680 176
-349 299 -648 396 -970 95 -314 209 -504 426 -715 184 -178 345 -294 809 -580
509 -315 640 -412 946 -701 241 -229 334 -309 448 -388 156 -107 282 -159 476
-198 75 -15 139 -18 375 -17 1163 2 2342 288 3252 788 458 251 799 506 1158
866 363 362 624 717 839 1140 283 557 408 1048 451 1776 7 122 10 1413 10
3990 0 4104 -3 3882 50 4189 45 258 142 606 267 950 36 99 154 403 263 675
109 272 229 583 268 690 423 1173 423 2090 2 2790 -75 125 -134 208 -339 480
-375 496 -491 741 -556 1175 -26 170 -30 613 -11 1010 69 1405 -13 2482 -264
3470 -218 858 -564 1607 -1037 2240 -647 868 -1461 1454 -2391 1720 -516 149
-1057 221 -2007 270 -1037 53 -1732 66 -2285 44z m4450 -679 c25 -6 95 -35
155 -66 78 -39 129 -58 175 -64 72 -10 164 0 224 25 34 14 37 14 43 -2 15 -37
7 -89 -20 -135 -21 -36 -40 -53 -83 -74 -78 -38 -152 -35 -566 19 -358 48
-387 55 -418 109 -14 25 -13 29 10 53 106 112 315 171 480 135z m-2784 -174
c33 -15 58 -34 63 -48 9 -24 -1 -84 -17 -100 -11 -11 -162 1 -162 13 0 5 -6 9
-14 9 -49 0 -90 85 -67 137 11 25 14 26 77 20 37 -4 90 -17 120 -31z m1720
-51 c525 -144 1178 -405 1634 -654 162 -89 216 -126 291 -201 90 -90 119 -151
119 -252 0 -44 6 -93 14 -111 20 -49 89 -106 215 -177 132 -76 188 -121 207
-167 16 -36 19 -83 5 -83 -12 0 -1178 546 -1228 576 -70 40 -103 100 -72 131
18 18 162 -25 276 -82 l103 -52 9 33 c21 77 -43 180 -142 228 -29 14 -110 36
-180 50 -160 32 -193 46 -292 131 -268 229 -590 371 -950 420 -191 26 -255 66
-255 160 0 48 36 85 83 85 18 0 92 -16 163 -35z m-3866 -116 c0 -69 -57 -141
-140 -178 -25 -11 -87 -27 -137 -36 -197 -34 -303 -81 -584 -261 -305 -195
-442 -249 -634 -248 -89 0 -121 5 -167 23 -34 13 -58 28 -58 37 0 48 76 126
167 173 231 116 827 332 1213 440 258 72 325 89 333 84 4 -2 7 -18 7 -34z
m5792 -66 c34 -31 35 -105 2 -138 -20 -19 -87 -19 -124 0 -31 16 -59 55 -40
55 5 0 10 10 10 23 1 68 100 107 152 60z m418 -298 c30 -91 -42 -177 -185
-220 -42 -12 -46 -12 -55 5 -29 54 11 175 72 220 39 28 127 52 145 38 7 -5 17
-25 23 -43z m-4424 -145 c352 -77 673 -149 714 -161 154 -42 264 -129 295
-232 19 -65 19 -106 0 -114 -38 -14 -282 94 -427 189 -49 32 -90 58 -93 58 -8
0 -25 -75 -24 -110 0 -19 8 -66 19 -105 10 -38 17 -71 16 -73 -2 -1 -74 41
-162 94 -294 176 -674 351 -1010 463 -82 27 -149 55 -148 60 1 6 2 16 3 21 3
24 67 50 122 50 36 0 292 -52 695 -140z m2538 -204 c36 -15 66 -50 66 -77 0
-10 -12 -32 -26 -49 -21 -25 -33 -30 -58 -28 -27 3 -35 11 -58 59 -37 78 -38
91 -8 100 38 11 48 10 84 -5z m-6124 -175 c0 -15 8 -19 41 -19 52 -1 111 -39
129 -82 17 -41 7 -50 -67 -57 -70 -6 -126 9 -148 40 -20 29 -19 96 2 119 21
23 43 23 43 -1z m8175 -167 c236 -88 541 -237 739 -360 l70 -44 -79 0 c-174 0
-396 52 -562 131 -112 53 -246 145 -338 231 -66 62 -75 73 -59 80 36 15 130 0
229 -38z m-10457 -308 c-3 -83 -8 -102 -41 -168 -24 -50 -55 -92 -93 -128
l-56 -53 -14 24 c-8 14 -13 56 -14 104 0 68 4 89 29 140 16 33 46 76 67 97 39
36 102 78 118 78 4 0 7 -42 4 -94z m714 -423 c56 -60 63 -87 62 -233 l0 -135
-82 -324 c-46 -178 -81 -326 -78 -328 2 -2 89 2 192 10 104 7 190 13 192 11
10 -7 -1096 -2210 -1182 -2354 -98 -164 -205 -273 -336 -345 -117 -64 -198
-169 -245 -315 -33 -107 -43 -168 -60 -394 -16 -214 -33 -312 -70 -414 -25
-69 -83 -162 -101 -162 -23 0 -109 66 -140 107 -54 71 -76 151 -81 295 -3 75
0 162 7 209 16 116 93 414 198 774 162 554 204 754 232 1115 30 396 70 582
156 739 20 36 75 114 123 174 112 140 136 186 136 259 0 82 -9 86 -96 43 -56
-28 -96 -59 -163 -128 l-90 -90 -18 23 c-38 47 -20 120 65 262 184 306 456
638 717 873 133 121 312 267 318 260 10 -10 -23 -123 -54 -183 -42 -83 -102
-164 -234 -312 -137 -154 -194 -230 -237 -318 -31 -62 -37 -86 -41 -158 -3
-46 -1 -84 3 -84 15 0 172 140 278 247 230 233 429 526 553 816 20 48 40 87
44 87 3 0 18 -12 32 -27z m10548 -79 c0 -41 -5 -51 -40 -86 -37 -37 -44 -40
-81 -35 -26 3 -52 16 -70 33 -30 29 -55 87 -44 104 3 6 47 10 100 10 52 0 97
4 100 10 3 6 13 10 21 10 10 0 14 -13 14 -46z m-9307 -277 c61 -70 123 -232
112 -292 -10 -50 -27 -85 -41 -85 -14 0 -72 47 -111 90 -13 14 -37 54 -55 90
-26 53 -32 81 -36 148 l-5 84 59 -7 c41 -5 64 -13 77 -28z m-850 -15 c18 -19
18 -22 -41 -148 l-59 -129 -41 1 c-61 1 -72 15 -72 93 1 72 18 130 47 163 43
49 127 59 166 20z m559 -287 c0 -62 -30 -120 -105 -206 -114 -131 -156 -215
-141 -282 4 -21 28 -53 65 -89 47 -44 59 -63 59 -87 0 -38 -22 -51 -88 -51
-105 0 -199 106 -209 233 -10 126 57 240 254 433 130 127 137 132 151 113 7
-11 14 -39 14 -64z m1919 -417 c33 -9 38 -15 33 -32 -23 -75 -109 -145 -157
-127 -76 29 -74 136 3 164 26 9 81 7 121 -5z m1517 -8 c-7 -21 -127 -102 -213
-144 -98 -47 -139 -62 -445 -160 -297 -96 -408 -156 -766 -417 -392 -286 -582
-382 -834 -424 -154 -26 -347 -7 -370 35 -20 38 -39 134 -50 252 -22 237 -56
319 -164 393 -46 32 -67 40 -116 43 -48 4 -65 0 -93 -17 -40 -25 -47 -17 -47
48 0 90 60 187 147 238 86 50 161 64 365 70 283 8 359 -13 487 -137 128 -123
263 -173 466 -172 159 0 285 33 556 142 112 45 249 98 304 117 198 68 439 117
652 132 60 5 112 9 116 10 5 0 7 -3 5 -9z m1546 -780 c35 -202 108 -365 244
-545 102 -135 182 -293 217 -430 43 -164 45 -397 5 -538 l-11 -37 -62 47 c-97
75 -236 220 -310 324 -37 51 -95 149 -128 216 -34 67 -65 120 -70 118 -20 -13
-51 -126 -56 -202 -11 -166 42 -310 154 -421 37 -37 96 -82 130 -100 106 -56
139 -130 131 -295 -10 -198 -139 -663 -294 -1054 -110 -279 -329 -724 -365
-743 -22 -11 -73 7 -104 37 -35 36 -67 100 -94 193 -27 90 -71 162 -116 190
-32 20 -89 27 -99 12 -2 -4 2 -37 11 -72 21 -93 13 -308 -17 -410 -60 -209
-195 -410 -363 -543 -176 -139 -332 -199 -549 -211 -92 -5 -98 -4 -109 16 -6
12 -12 42 -12 67 -1 78 133 321 334 606 47 66 129 183 183 259 198 281 328
512 389 696 28 82 67 261 67 307 l0 28 -99 -9 -99 -9 -25 -96 c-46 -176 -138
-383 -260 -586 -33 -55 -139 -221 -237 -370 -314 -480 -349 -546 -510 -965
-186 -487 -307 -668 -515 -771 -123 -60 -125 -60 -153 36 -32 110 -40 244 -18
317 17 59 63 128 107 160 38 29 103 49 110 35 4 -7 21 -74 40 -150 33 -136 34
-137 51 -115 10 13 30 59 44 103 41 125 44 281 9 560 -53 425 -19 637 127 791
28 30 54 52 58 49 4 -2 10 -70 13 -151 3 -80 8 -149 11 -152 12 -11 68 -3 99
15 39 23 89 94 116 168 11 30 30 109 41 177 96 564 256 1175 445 1693 68 187
181 467 216 538 40 79 119 162 175 183 47 18 119 12 111 -9 -3 -7 -37 -91 -77
-187 -295 -718 -421 -1208 -419 -1635 l0 -130 51 100 c253 498 537 1223 698
1785 23 80 44 147 45 149 12 12 71 -50 92 -97 23 -48 25 -64 21 -147 -4 -92
-4 -93 -85 -261 -90 -186 -103 -223 -103 -303 0 -98 58 -179 154 -216 88 -34
145 4 214 142 43 85 70 187 83 318 12 122 7 237 -22 513 -33 315 -23 539 32
712 42 132 115 251 192 314 39 32 137 89 143 84 1 -2 9 -46 18 -98z m-1579
-59 c-11 -11 -310 -268 -665 -571 -355 -304 -646 -556 -648 -560 -4 -10 60
-20 130 -20 212 0 444 116 566 285 l22 30 20 -24 c44 -51 20 -116 -96 -261
-131 -163 -165 -271 -111 -351 50 -76 185 -103 283 -57 52 24 144 105 189 167
17 22 33 41 38 41 4 0 7 -41 7 -91 0 -70 -6 -107 -25 -166 -53 -157 -137 -271
-402 -545 -282 -291 -426 -477 -588 -761 -181 -316 -329 -740 -381 -1090 -10
-65 -21 -112 -25 -105 -13 24 -47 202 -58 300 -55 500 98 1037 410 1435 27 35
49 66 49 69 0 15 -133 -7 -182 -30 -101 -48 -188 -160 -206 -266 l-7 -44 -85
136 c-47 76 -88 134 -91 130 -3 -4 -100 -256 -215 -559 l-209 -552 -7 147
c-15 286 -39 669 -53 832 -27 299 -56 575 -64 595 -6 14 -17 -9 -44 -95 -224
-708 -218 -1492 18 -2430 118 -468 364 -1162 466 -1315 92 -137 185 -180 300
-140 56 20 91 12 141 -33 69 -62 112 -172 123 -317 19 -237 98 -375 214 -375
27 0 35 15 236 440 115 242 210 438 212 436 2 -2 10 -41 18 -87 60 -341 206
-673 422 -961 135 -180 397 -425 550 -515 53 -31 86 -25 109 19 24 45 14 118
-36 273 -36 111 -41 139 -37 191 9 125 95 248 208 299 72 32 79 23 -98 116
-68 35 -123 67 -123 71 0 12 176 21 320 15 275 -12 523 -94 763 -253 91 -61
276 -226 297 -264 9 -16 3 -16 -78 -3 -193 30 -398 99 -579 194 -62 32 -113
56 -113 53 0 -12 56 -114 90 -165 48 -69 180 -193 253 -237 170 -102 343 -147
532 -139 122 6 182 19 287 63 125 52 253 19 364 -93 72 -74 118 -169 154 -323
17 -69 41 -172 55 -230 60 -256 206 -426 437 -512 68 -25 104 -32 200 -37
l116 -6 -141 -343 -142 -342 -21 107 c-25 130 -75 255 -146 372 -69 112 -243
289 -351 355 -81 51 -221 116 -248 116 -9 0 -72 -49 -140 -109 l-124 -108 -7
51 c-4 28 -16 215 -28 416 -11 201 -23 384 -26 407 l-5 42 -72 -54 c-118 -90
-258 -154 -374 -171 -27 -3 -54 -10 -61 -13 -7 -4 35 -28 100 -58 106 -47 113
-52 111 -78 -5 -60 -67 -95 -170 -95 -82 0 -116 9 -258 65 -155 62 -319 109
-465 135 -156 28 -476 38 -631 21 -269 -31 -533 -107 -764 -220 -122 -60 -344
-196 -359 -219 -2 -4 79 -8 182 -8 140 0 210 -4 277 -18 92 -18 212 -63 253
-94 22 -17 15 -17 -177 -14 -221 5 -336 -5 -511 -44 -169 -38 -307 -87 -465
-164 -165 -80 -392 -227 -375 -243 3 -2 388 -95 855 -207 834 -199 988 -241
1083 -296 118 -69 215 -205 228 -320 6 -45 -10 -154 -22 -154 -2 0 -32 28 -67
63 -110 109 -236 168 -403 189 -161 20 -324 -15 -451 -99 -29 -19 -53 -39 -53
-44 0 -14 135 -104 228 -152 111 -57 259 -109 398 -139 96 -20 135 -23 334
-23 195 1 239 4 330 23 338 73 599 210 821 431 103 103 133 141 262 337 79
121 173 251 208 289 145 156 312 214 482 170 246 -64 464 -347 521 -678 8 -46
20 -165 26 -263 24 -408 31 -498 46 -577 34 -182 73 -279 204 -507 107 -186
174 -326 199 -419 103 -374 -14 -806 -298 -1104 -119 -124 -233 -203 -379
-263 l-55 -22 48 -8 c134 -20 343 27 479 106 233 137 380 343 420 588 17 107
28 126 82 152 78 38 196 19 251 -41 58 -64 71 -193 29 -310 -68 -193 -293
-422 -534 -543 -170 -85 -380 -136 -568 -136 -191 0 -356 43 -733 189 -249 97
-511 163 -511 129 0 -25 48 -114 89 -165 55 -68 162 -148 347 -259 123 -73
166 -106 245 -184 141 -140 198 -271 171 -396 -18 -89 -27 -92 -80 -33 -38 42
-110 99 -125 99 -3 0 -2 -51 1 -114 6 -138 -12 -228 -67 -343 -41 -83 -119
-186 -172 -224 l-32 -22 7 249 c3 137 9 343 12 458 l6 209 -58 -7 c-359 -43
-763 -197 -1092 -416 -257 -172 -473 -373 -650 -608 -98 -130 -232 -347 -232
-375 0 -3 41 -30 91 -62 51 -32 148 -101 218 -153 438 -328 796 -727 1099
-1223 l33 -54 -7 60 c-34 340 -179 652 -417 901 -120 125 -234 213 -380 290
-134 71 -187 125 -217 221 -42 136 -19 292 60 411 86 128 217 225 480 356 203
101 252 117 362 123 78 5 92 3 145 -21 95 -44 163 -125 163 -195 0 -24 -5 -30
-27 -35 -16 -3 -67 -13 -115 -22 -49 -9 -88 -19 -88 -23 1 -16 93 -187 136
-253 69 -104 269 -301 378 -373 105 -68 240 -134 349 -169 86 -28 222 -56 272
-56 58 0 67 -7 50 -40 -22 -43 -89 -95 -148 -115 -41 -14 -101 -19 -282 -25
-244 -7 -282 -14 -371 -66 -92 -52 -121 -117 -105 -225 42 -268 14 -573 -79
-851 -56 -169 -164 -379 -253 -491 -16 -21 -27 -40 -25 -42 8 -9 181 112 261
181 131 114 258 278 340 438 l35 69 11 -39 c60 -224 15 -508 -112 -706 l-34
-54 28 4 c66 10 125 -78 116 -172 -4 -43 -10 -55 -42 -83 -84 -72 -193 -66
-419 24 -116 46 -154 57 -217 61 -43 2 -91 0 -111 -7 l-34 -11 -116 -367 c-65
-202 -115 -369 -113 -372 9 -8 143 80 215 141 41 36 102 100 135 144 32 43 62
83 66 88 5 5 2 -15 -6 -45 -35 -139 -227 -876 -231 -891 -4 -13 -21 -1 -77 55
-135 134 -245 192 -359 185 -57 -3 -73 -8 -105 -34 -89 -71 -113 -158 -120
-434 -5 -204 4 -325 37 -478 l12 -54 25 24 c43 40 111 141 153 229 53 111 79
219 88 359 l7 115 37 -70 c52 -101 71 -180 70 -305 -1 -203 -68 -367 -206
-505 -48 -48 -104 -93 -138 -110 l-56 -29 29 -14 c60 -29 94 -131 78 -233 -5
-28 -29 -103 -54 -165 -26 -63 -49 -138 -52 -167 -17 -171 121 -283 379 -305
l83 -8 -52 -27 c-221 -115 -539 -93 -757 54 -68 45 -134 105 -125 112 2 2 25
16 50 31 109 63 203 203 238 359 42 180 37 278 -30 625 -49 255 -63 375 -55
477 21 261 113 495 361 920 219 375 305 554 356 745 19 69 23 112 23 230 1 91
-4 165 -12 197 l-14 53 -37 -6 c-87 -14 -241 28 -358 97 -76 45 -218 186 -280
279 -113 169 -163 303 -262 705 -70 282 -115 438 -152 520 -10 22 -19 37 -19
34 -1 -21 -304 -1113 -321 -1155 -21 -54 -69 -107 -107 -119 -31 -9 -75 2
-101 26 l-21 20 0 -35 c0 -35 33 -153 55 -196 l13 -25 -52 -1 c-59 0 -101 -20
-151 -69 -67 -68 -80 -106 -79 -235 1 -95 5 -129 27 -195 14 -43 24 -81 22
-83 -10 -10 -97 43 -126 76 -56 64 -73 115 -77 238 -7 181 25 274 168 494 120
185 185 312 206 407 15 70 16 174 1 190 -12 11 -90 -20 -151 -61 -32 -22 -77
-63 -100 -93 l-41 -53 -104 208 c-57 114 -105 209 -108 212 -2 2 -21 -16 -41
-40 -91 -112 -207 -199 -337 -251 -42 -17 -79 -28 -82 -26 -2 3 27 44 66 92
113 141 172 287 157 392 -23 170 -240 300 -357 214 l-29 -22 0 79 c0 255 -168
475 -418 548 -9 3 4 24 37 60 62 71 116 171 136 255 8 35 15 67 15 70 0 3 -19
11 -42 18 -131 39 -190 153 -244 471 -47 276 -80 373 -153 453 -22 24 -60 52
-83 61 -143 58 -188 96 -240 201 -38 76 -54 131 -103 360 -137 634 -348 1185
-662 1724 l-78 134 -6 -79 c-7 -95 -34 -156 -96 -222 -38 -40 -44 -43 -39 -22
33 139 38 177 38 290 1 146 -15 229 -72 389 -97 270 -150 536 -180 890 -28
335 -20 1119 15 1486 49 515 163 900 351 1188 81 124 245 293 355 364 l75 49
-53 134 c-186 464 -243 984 -163 1476 11 66 38 195 61 285 38 150 42 178 46
329 3 101 1 201 -6 255 -29 218 -103 474 -241 830 -92 238 -113 280 -198 405
-82 120 -136 234 -170 358 -23 88 -26 114 -26 277 0 164 3 189 27 280 32 118
106 275 174 365 l48 64 7 -91 c9 -119 30 -199 79 -300 64 -133 166 -248 290
-327 l26 -17 7 38 c17 96 18 330 2 448 -16 119 -55 289 -81 353 l-14 33 117
-8 c202 -14 642 -8 804 11 194 22 399 58 582 103 139 34 476 142 595 191 l53
23 -64 -73 c-234 -263 -383 -562 -448 -896 -34 -176 -29 -183 40 -59 348 627
923 1132 1596 1402 124 50 136 52 109 26z m-4231 -77 c3 -9 6 -49 6 -89 0 -81
-3 -85 -69 -85 -57 0 -75 18 -68 70 10 73 112 155 131 104z m11255 -26 c13
-23 14 -34 3 -75 -19 -71 -51 -113 -143 -187 -100 -80 -214 -141 -290 -154
-55 -11 -135 -6 -144 8 -3 4 11 39 30 78 52 102 121 162 255 217 8 3 65 37
125 75 61 38 119 68 130 67 10 -1 26 -14 34 -29z m-2804 -63 c256 -34 485 -77
668 -125 84 -22 211 -55 282 -74 187 -49 313 -68 450 -68 203 1 366 48 492
144 35 26 68 48 73 48 14 0 30 -35 30 -66 0 -102 -158 -230 -352 -284 -234
-65 -461 -43 -835 81 -84 28 -156 48 -161 45 -5 -3 -21 -35 -37 -72 l-29 -67
28 -53 c57 -108 176 -188 327 -220 47 -10 120 -16 199 -15 127 0 149 4 475 76
85 19 160 28 260 32 172 6 234 -6 372 -75 103 -52 188 -82 288 -104 84 -18
304 -15 385 5 36 8 66 14 68 12 9 -9 -42 -86 -79 -119 -57 -52 -131 -84 -228
-98 -103 -15 -182 -3 -341 53 -356 125 -345 122 -481 127 -149 5 -247 -15
-369 -76 -88 -43 -99 -68 -55 -120 41 -49 87 -58 210 -43 146 18 215 4 322
-66 49 -32 123 -117 123 -141 0 -6 -26 -18 -57 -27 -45 -13 -85 -16 -178 -13
-106 4 -133 9 -230 42 -109 37 -497 222 -1095 522 -455 228 -589 313 -768 488
-133 129 -173 207 -137 263 17 25 19 26 104 20 47 -3 172 -17 276 -32z m-7129
-70 c27 -14 55 -25 62 -25 32 0 -9 -53 -54 -70 -82 -32 -214 25 -214 91 0 23
13 27 91 28 51 1 76 -4 115 -24z m6235 -25 c32 -18 216 -227 321 -367 55 -73
138 -195 184 -270 83 -135 214 -381 214 -402 0 -29 -239 123 -345 219 -146
132 -273 298 -357 463 -39 79 -118 297 -118 329 0 33 60 49 101 28z m-461
-120 c98 -193 194 -499 239 -760 34 -198 44 -356 38 -593 -8 -314 -36 -484
-140 -847 -57 -197 -71 -284 -63 -391 19 -255 19 -301 -3 -391 -49 -207 -182
-393 -353 -493 -33 -19 -63 -35 -68 -35 -4 0 5 24 20 53 82 151 82 251 6 1177
-88 1075 -97 1141 -206 1505 -22 72 -44 162 -49 201 -22 155 36 302 143 359
l35 19 26 -24 c31 -29 44 -73 89 -305 93 -479 177 -1091 202 -1475 9 -143 13
-152 46 -103 72 108 128 261 147 397 16 111 14 346 -4 481 -9 64 -40 234 -69
378 -72 347 -88 464 -90 632 -1 127 10 275 20 275 2 0 17 -27 34 -60z m-1900
-32 c69 -47 91 -144 47 -209 -33 -50 -49 -48 -81 11 -22 41 -28 63 -27 108 4
126 5 128 61 90z m-4679 -88 c31 -17 23 -38 -41 -108 -119 -131 -225 -308
-284 -472 -44 -122 -65 -224 -86 -425 -11 -105 -29 -223 -40 -264 -31 -112
-97 -233 -251 -463 -155 -233 -187 -290 -229 -416 -47 -142 -56 -269 -41 -610
13 -301 8 -420 -24 -544 -25 -95 -34 -108 -71 -108 -44 0 -86 37 -114 102 -18
41 -25 82 -31 178 -4 69 -13 143 -19 165 -14 45 -81 118 -106 113 -12 -2 -82
-206 -270 -783 -140 -429 -257 -787 -260 -795 -4 -11 -11 -4 -25 22 -69 134
-65 344 13 588 34 106 605 1729 700 1989 301 826 583 1343 941 1727 93 100
177 136 238 104z m8880 -898 c465 -275 858 -507 873 -518 65 -42 104 -130 77
-173 -22 -34 -768 344 -1245 631 -256 154 -459 288 -509 337 -51 49 -87 112
-87 152 0 25 25 69 39 69 4 0 388 -224 852 -498z m-1681 236 c69 -86 128 -171
175 -252 l29 -49 -34 6 c-102 21 -211 97 -272 191 -35 55 -74 154 -63 164 5 5
65 20 85 20 8 1 44 -36 80 -80z m1162 -393 c152 -39 341 -158 432 -272 42 -53
44 -59 29 -70 -9 -7 -33 -13 -53 -13 -30 0 -88 33 -336 191 l-299 191 82 -5
c46 -4 111 -14 145 -22z m-615 -245 c61 -37 126 -189 176 -410 18 -82 21 -127
21 -320 0 -211 -1 -232 -27 -342 -34 -142 -61 -224 -117 -347 -60 -133 -53
-164 79 -335 114 -147 156 -267 149 -423 -2 -51 -8 -97 -14 -103 -15 -15 -172
199 -284 388 l-42 72 -30 -87 c-42 -128 -126 -295 -146 -291 -33 6 -62 78 -62
154 0 85 15 137 84 297 92 211 162 453 198 687 21 134 18 597 -5 735 -16 97
-60 294 -74 331 -8 22 56 17 94 -6z m-514 -169 c72 -80 118 -206 137 -381 14
-122 14 -446 0 -575 -39 -354 -138 -695 -289 -990 l-56 -110 -6 130 c-10 199
-9 712 1 885 14 245 35 312 124 409 82 90 86 148 21 371 -39 135 -54 258 -36
303 10 27 12 27 39 13 16 -8 45 -33 65 -55z m-3868 -148 c44 -43 46 -127 6
-244 -83 -244 -203 -482 -359 -713 -64 -94 -132 -196 -152 -226 -54 -80 -115
-206 -139 -285 -11 -39 -28 -125 -36 -193 -19 -150 -45 -224 -97 -276 -21 -21
-41 -36 -44 -33 -14 14 -33 174 -34 277 0 311 109 634 366 1081 87 152 222
358 333 506 90 122 120 142 156 106z m2579 -7 c73 -30 106 -126 106 -306 0
-191 -48 -368 -144 -530 -49 -83 -150 -207 -189 -233 -22 -14 -27 -15 -38 -1
-18 22 -23 106 -9 150 7 22 36 89 66 150 76 156 94 235 94 403 0 75 -5 176
-10 224 -12 101 -6 121 43 142 40 18 41 18 81 1z m-436 -718 c62 -201 24 -397
-135 -707 -196 -379 -222 -446 -246 -622 -16 -120 -36 -171 -74 -188 -33 -15
-39 -9 -57 64 -39 149 -12 269 149 645 130 306 201 491 330 858 8 22 14 13 33
-50z m-5594 23 c29 -32 32 -94 7 -136 -12 -20 -19 -41 -16 -46 10 -15 -74 -10
-100 7 -32 21 -37 39 -21 78 16 40 83 116 101 116 6 0 20 -9 29 -19z m211
-388 c-57 -135 -195 -263 -339 -313 -62 -22 -72 -13 -61 58 10 69 28 104 76
154 95 97 177 137 282 138 l57 0 -15 -37z m9920 -625 c234 -877 402 -1824 490
-2763 82 -880 93 -1881 30 -2775 -99 -1400 -367 -2769 -802 -4095 -82 -250
-118 -330 -180 -396 -109 -118 -220 -107 -357 34 -144 149 -272 361 -340 567
-52 157 -76 311 -76 492 0 175 -12 236 -71 348 -48 91 -97 157 -237 318 -149
172 -216 264 -262 357 -63 128 -74 186 -64 345 5 74 8 189 9 255 0 111 -2 125
-28 180 -49 105 -136 175 -217 175 -22 0 -40 -1 -40 -2 0 -2 9 -28 21 -58 12
-30 23 -89 26 -131 6 -79 -12 -209 -28 -209 -5 0 -9 5 -9 11 0 20 -86 195
-124 251 -19 29 -55 77 -81 107 l-45 53 -39 -43 c-47 -50 -86 -125 -102 -194
-6 -27 -14 -58 -18 -68 -5 -15 -138 337 -238 628 -2 6 16 18 39 28 65 26 173
112 221 174 23 30 49 64 58 75 15 20 19 14 109 -140 l93 -161 38 77 c81 166
255 273 468 289 146 10 288 -37 383 -128 21 -20 40 -34 42 -30 7 12 68 282 65
285 -2 2 -65 29 -139 61 -151 65 -160 71 -194 129 -44 75 -59 149 -54 260 9
169 67 289 212 431 203 200 690 461 1133 606 l102 34 1 48 c0 79 -29 186 -78
287 -39 80 -60 109 -137 186 -61 61 -112 102 -160 128 -38 20 -59 35 -45 32
187 -39 407 -47 538 -20 157 32 275 115 330 232 24 50 27 69 27 158 0 96 -2
103 -39 180 -52 106 -153 207 -257 258 -118 57 -183 70 -349 70 -163 1 -217
-7 -480 -70 -102 -24 -230 -53 -285 -65 -169 -35 -441 -37 -531 -2 -15 5 -15
3 1 -20 45 -69 -60 -177 -172 -177 -77 0 -140 50 -221 175 -112 173 -157 214
-249 230 -58 9 -140 -16 -177 -54 -30 -31 -31 -40 -10 -147 14 -73 -63 -153
-186 -195 -54 -18 -92 -22 -230 -24 -136 -3 -177 -7 -235 -25 -80 -25 -141
-78 -151 -129 l-7 -32 -28 27 c-15 14 -37 49 -49 77 -19 43 -22 65 -18 141 3
77 9 102 36 158 75 156 231 256 503 321 355 86 450 112 553 147 228 79 387
171 498 289 78 82 109 131 159 257 95 238 194 316 675 534 202 92 290 141 393
219 176 133 295 354 360 667 18 86 116 776 137 962 4 35 10 60 15 55 4 -4 37
-119 74 -255z m-12018 206 c43 -54 37 -128 -13 -140 -34 -9 -134 14 -141 32
-10 27 8 85 38 118 27 31 33 34 62 25 18 -5 42 -21 54 -35z m10461 -25 c19
-53 22 -79 19 -149 -3 -49 -12 -102 -21 -125 l-17 -40 -25 30 c-60 74 -73 214
-28 303 14 29 31 51 38 49 6 -2 21 -32 34 -68z m-8834 29 c31 -43 19 -78 -105
-329 l-122 -244 -26 55 c-23 48 -26 68 -26 160 0 97 2 110 31 170 39 81 82
135 141 177 54 39 86 42 107 11z m5126 -68 c24 -86 1 -191 -56 -258 -35 -42
-37 -43 -57 -25 -48 43 -61 133 -28 193 11 19 27 51 36 70 9 19 28 48 43 63
25 26 28 27 39 10 7 -9 18 -33 23 -53z m-5592 -384 c3 -41 -1 -50 -27 -77 -20
-20 -39 -29 -53 -27 -45 6 -33 129 15 163 34 24 61 -1 65 -59z m10092 -94 c61
-46 90 -118 90 -227 0 -270 -192 -598 -460 -787 -68 -48 -220 -128 -243 -128
-10 0 -19 46 -35 178 -12 97 -22 196 -22 219 0 81 45 92 157 39 104 -50 142
-59 170 -41 18 12 23 25 23 59 0 46 2 43 -108 176 -33 40 -32 87 2 117 15 12
33 23 41 23 8 0 53 -45 101 -101 l88 -101 23 39 c65 107 56 266 -21 368 -48
63 -26 133 56 174 49 25 98 22 138 -7z m-4752 -79 c-60 -117 -69 -179 -61
-437 6 -226 -2 -286 -57 -422 -47 -117 -127 -244 -298 -473 -267 -357 -335
-489 -403 -776 -16 -70 -69 -346 -69 -362 0 -13 -59 2 -84 21 -63 47 -98 155
-117 352 -25 263 32 561 156 820 117 244 318 474 555 634 141 96 170 130 170
199 0 47 -21 91 -43 91 -26 0 -228 -105 -320 -167 -54 -36 -141 -105 -192
-155 -70 -67 -99 -88 -113 -84 -37 12 -112 66 -112 81 0 21 208 234 305 312
168 135 378 259 575 337 86 35 115 42 108 29z m3672 -791 c-15 -160 -45 -307
-91 -449 -42 -128 -42 -128 -99 -123 -47 4 -58 17 -66 77 -9 77 11 253 42 360
31 111 99 248 167 338 l52 70 3 -80 c2 -44 -2 -131 -8 -193z m-5495 -614 c14
-6 25 -15 25 -20 0 -18 -106 -208 -116 -208 -18 0 -63 40 -79 70 -42 81 13
169 107 170 20 0 49 -5 63 -12z m8749 -153 c175 -46 345 -193 415 -360 l28
-65 117 96 c89 73 121 93 129 85 7 -7 12 -44 12 -89 -1 -82 2 -73 -104 -309
-58 -129 -69 -193 -81 -478 -20 -471 -67 -811 -172 -1220 -88 -347 -244 -778
-300 -832 -57 -53 -107 -66 -121 -30 -5 14 28 156 148 622 193 753 243 1011
267 1401 14 230 0 481 -32 567 -59 156 -226 170 -364 29 -65 -66 -82 -95 -113
-187 -22 -68 -27 -103 -31 -231 -5 -182 6 -261 84 -599 96 -411 114 -589 78
-762 -14 -70 -72 -219 -81 -210 -2 2 -35 168 -73 368 -158 831 -170 915 -170
1139 0 287 67 500 207 660 81 93 108 156 107 250 0 54 -6 88 -21 123 -26 55
-23 56 71 32z m-6464 -52 c0 -36 -24 -85 -54 -110 -14 -13 -26 -29 -26 -36 0
-28 -61 -95 -112 -122 -42 -23 -66 -29 -115 -30 -34 0 -65 3 -69 7 -12 13 26
96 73 158 52 70 149 143 225 170 49 18 54 18 66 3 6 -9 12 -27 12 -40z m-4965
13 c37 -27 12 -159 -50 -271 -34 -61 -110 -155 -125 -155 -15 0 -30 62 -30
122 0 71 40 197 77 246 25 33 78 72 99 72 5 0 19 -6 29 -14z m-1753 -203 c168
-58 314 -158 512 -352 199 -195 309 -337 382 -490 62 -129 73 -196 84 -486 39
-1069 140 -2031 321 -3068 23 -130 39 -240 35 -244 -3 -4 -55 -8 -114 -11 -80
-3 -124 0 -172 13 -258 67 -509 281 -820 700 -605 813 -982 1752 -1106 2750
-19 157 -22 410 -4 520 79 510 473 809 882 668z m7062 -144 c20 -23 26 -42 26
-78 0 -26 -6 -55 -13 -65 -12 -16 -15 -17 -54 -1 -73 29 -97 102 -48 150 32
33 58 31 89 -6z m2107 -8 c23 -23 29 -38 29 -70 l0 -41 -82 6 c-46 4 -85 8
-87 10 -9 8 32 95 52 109 32 22 55 18 88 -14z m-7826 -75 c15 -11 17 -21 12
-60 -6 -44 -36 -114 -62 -146 -6 -8 -22 -44 -34 -80 -24 -68 -90 -188 -114
-209 -37 -30 -60 163 -32 269 33 128 117 240 178 240 18 0 41 -6 52 -14z
m7316 -150 c13 -13 29 -22 36 -19 19 7 16 -28 -5 -53 -21 -27 -54 -44 -82 -44
-32 0 -80 53 -80 87 0 40 17 53 66 53 31 0 48 -6 65 -24z m-988 -91 c52 -21
107 -73 128 -120 18 -40 26 -130 12 -138 -5 -3 -50 8 -102 24 l-94 28 -51 -20
c-28 -11 -80 -23 -116 -26 -66 -6 -180 11 -180 27 0 5 19 37 43 72 48 69 120
130 182 152 53 19 134 20 178 1z m-1413 -1439 c199 -43 354 -117 399 -190 24
-38 28 -94 7 -102 -46 -18 -424 65 -602 132 -153 56 -338 146 -321 155 54 31
384 34 517 5z m4604 -302 c20 -8 21 -65 1 -103 -20 -40 -72 -81 -101 -81 -13
0 -24 -5 -24 -11 0 -27 -99 32 -121 72 -14 28 25 79 83 108 42 21 127 28 162
15z m-5186 -184 c74 -46 69 -175 -9 -216 -60 -30 -148 6 -184 77 -15 28 -21
89 -8 76 3 -4 14 6 23 21 35 58 119 78 178 42z m3272 -277 c18 -27 25 -53 28
-103 4 -71 -8 -109 -47 -144 -18 -16 -23 -17 -37 -5 -36 29 -52 90 -49 179 1
47 7 98 14 113 11 28 11 28 39 12 15 -9 39 -33 52 -52z m904 -624 c35 -28 86
-117 86 -151 0 -15 5 -30 10 -33 15 -10 12 -58 -6 -84 -9 -13 -32 -30 -51 -37
-51 -22 -95 2 -128 70 -26 53 -42 156 -31 199 14 58 71 75 120 36z m-1014
-314 c121 -143 214 -304 274 -472 30 -85 28 -87 -65 -41 -82 40 -211 168 -257
255 -18 34 -41 96 -52 139 -19 74 -27 213 -13 227 9 9 33 -14 113 -108z m491
8 c57 -25 113 -74 129 -113 10 -25 18 -30 45 -30 39 0 75 -37 75 -77 0 -38
-26 -90 -55 -109 -52 -34 -148 -13 -215 48 -14 13 -54 57 -89 98 -67 78 -110
118 -149 139 l-24 13 21 14 c67 47 178 54 262 17z m-7587 -1264 c34 -26 66
-89 66 -128 0 -29 -1 -30 -45 -26 -51 4 -111 36 -120 64 -7 22 1 46 27 84 23
32 37 34 72 6z m-380 -252 c37 -48 48 -85 48 -157 0 -82 -28 -160 -108 -296
-32 -56 -120 -206 -194 -333 -140 -240 -159 -261 -181 -203 -16 40 -5 94 54
274 74 221 154 422 244 610 84 173 85 174 137 105z m469 -158 c45 -37 73 -96
200 -414 172 -432 385 -1049 422 -1219 25 -113 17 -242 -19 -318 -29 -61 -88
-128 -134 -152 -39 -20 -111 -36 -117 -26 -3 4 6 32 20 62 44 94 58 185 52
332 -8 206 -56 365 -256 838 -72 171 -149 391 -196 558 -37 131 -85 352 -79
362 12 19 71 7 107 -23z m-239 -659 c19 -17 38 -44 41 -61 16 -71 -46 -197
-82 -168 -31 26 -56 93 -56 149 0 109 33 136 97 80z m-231 -198 c94 -173 28
-375 -152 -467 -28 -14 -60 -25 -71 -25 -18 0 -20 4 -14 43 23 162 82 377 139
511 l16 38 28 -26 c16 -15 40 -49 54 -74z m181 -565 c6 -25 -4 -70 -24 -107
-7 -13 -63 -76 -125 -139 -61 -64 -120 -132 -130 -151 -21 -39 -23 -96 -11
-218 8 -73 7 -85 -9 -102 -25 -27 -53 -25 -106 8 -104 66 -154 156 -154 277 0
67 4 89 27 135 48 97 92 130 309 229 106 49 199 90 205 90 7 1 14 -10 18 -22z
m338 -199 c51 -15 126 -82 149 -133 25 -55 25 -157 -1 -210 -25 -53 -58 -91
-69 -79 -9 9 -134 292 -172 387 l-19 47 36 0 c20 0 54 -5 76 -12z m986 -174
c43 -30 16 -150 -49 -215 -42 -42 -64 -47 -108 -25 -49 26 -54 40 -31 78 11
18 20 48 20 66 0 44 14 69 53 92 39 24 85 26 115 4z m4482 -95 c33 -60 18
-209 -20 -209 -49 0 -110 87 -110 158 0 59 104 100 130 51z m1315 -8 c123 -43
230 -144 275 -260 38 -98 38 -245 1 -344 -9 -24 -12 -25 -53 -16 -94 20 -85 9
-90 106 -8 162 -69 251 -229 333 -108 56 -139 88 -139 147 0 53 23 66 105 60
38 -3 97 -15 130 -26z m-6984 -127 c16 -35 20 -58 17 -100 -6 -72 -32 -108
-82 -112 -31 -3 -42 2 -71 31 -51 51 -48 83 17 179 50 74 52 76 74 61 13 -8
33 -35 45 -59z m-564 -345 c7 -7 26 -13 42 -14 39 -3 126 -45 171 -83 31 -27
34 -32 25 -57 -16 -45 -57 -69 -128 -73 -160 -10 -300 133 -206 212 32 27 77
34 96 15z m1111 -36 c16 -30 22 -108 11 -145 -16 -61 -70 -101 -121 -90 -16 3
-18 16 -18 99 0 91 1 96 29 124 34 34 85 40 99 12z m-1118 -393 c66 -11 187
-62 227 -96 l22 -19 -54 -159 c-74 -220 -90 -308 -90 -491 0 -131 3 -160 24
-229 73 -234 298 -416 515 -416 77 0 145 20 217 63 76 47 119 60 153 48 24
-10 26 -15 26 -69 0 -33 -3 -92 -6 -133 l-7 -74 -186 -1 c-200 -2 -372 -20
-566 -60 -66 -13 -125 -24 -131 -24 -14 0 -93 236 -139 413 -86 338 -119 603
-118 973 0 143 3 266 7 272 9 15 23 15 106 2z m6600 -43 c53 -25 118 -88 142
-137 l17 -35 -100 -3 c-112 -3 -122 0 -212 66 -54 40 -56 43 -45 72 5 17 22
39 36 51 32 25 89 20 162 -14z m1219 -426 c24 -13 43 -32 51 -52 16 -37 8 -46
-75 -84 -103 -46 -227 -57 -343 -30 -73 17 -168 63 -156 74 5 5 38 29 73 54
62 45 65 46 125 41 36 -3 89 1 131 10 82 18 140 14 194 -13z m-6114 -323 c29
-13 30 -23 9 -97 -17 -62 -82 -164 -107 -169 -9 -2 -28 9 -43 25 -32 34 -28
69 18 179 29 71 32 74 64 74 18 0 45 -5 59 -12z m-448 -101 c11 -11 13 -25 8
-57 -8 -45 -55 -108 -73 -96 -16 10 -52 112 -52 148 l0 31 51 -5 c28 -3 57
-12 66 -21z m5264 -250 c41 -26 62 -95 53 -179 -8 -67 -16 -71 -80 -33 -53 31
-77 64 -98 134 -21 71 -21 70 17 86 32 15 77 11 108 -8z m1288 -141 c174 -149
377 -408 462 -591 47 -100 33 -169 -46 -223 -69 -47 -165 -47 -285 0 -64 25
-83 38 -54 38 35 0 100 55 124 105 57 119 -29 275 -152 275 -41 0 -116 -45
-147 -88 -71 -101 -80 -190 -32 -321 44 -118 53 -163 40 -200 -30 -87 -141
-15 -190 124 -18 51 -22 88 -25 240 -2 119 -9 197 -18 229 -33 108 -120 186
-208 186 -115 0 -318 -153 -431 -323 -96 -144 -146 -301 -156 -482 l-6 -120
-26 55 c-81 167 -66 354 57 705 72 209 103 332 104 413 0 48 2 52 24 52 65 0
116 -94 116 -212 0 -32 4 -58 9 -58 21 0 80 26 118 52 51 34 96 98 115 160
l13 45 145 -96 c128 -85 306 -189 350 -206 14 -5 14 6 4 97 -7 57 -13 131 -13
166 -1 74 -6 75 108 -22z m-4665 -161 c19 -39 21 -113 5 -149 -10 -21 -16 -24
-43 -19 -82 16 -81 15 -84 71 -3 54 13 98 51 139 19 21 22 22 38 7 10 -9 25
-31 33 -49z m1072 0 c46 -32 73 -145 38 -159 -28 -11 -84 -6 -114 9 -25 13
-30 22 -30 51 0 19 9 53 20 74 22 44 49 52 86 25z m-2832 -85 c23 -8 26 -15
26 -59 0 -264 -240 -516 -498 -523 -34 -1 -64 1 -67 3 -3 3 7 29 22 58 30 58
106 133 235 233 124 95 180 182 162 252 -4 17 -1 27 13 35 23 13 74 14 107 1z
m1163 -197 c5 -16 8 -60 7 -100 0 -62 -5 -82 -37 -146 -38 -77 -97 -140 -125
-135 -9 2 -27 19 -40 38 -31 45 -26 106 13 187 29 57 140 183 163 183 6 0 15
-12 19 -27z m2107 -403 c51 -185 62 -213 88 -235 35 -29 47 -30 118 -9 74 22
140 6 140 -33 0 -8 -33 -65 -74 -126 -184 -277 -291 -579 -322 -907 l-7 -74
-38 43 c-47 53 -77 131 -91 238 -15 106 -3 203 53 438 41 168 43 189 44 325 0
143 0 146 -39 254 -32 91 -37 118 -33 159 9 69 52 131 97 136 3 1 31 -94 64
-209z m-2604 158 c54 -37 77 -98 111 -298 17 -99 29 -184 25 -187 -13 -14
-100 32 -145 77 -51 51 -115 166 -150 268 -24 71 -25 82 -10 116 23 50 112 62
169 24z m1822 -139 c16 -9 18 -13 7 -19 -8 -6 -12 -25 -11 -57 4 -86 -60 -153
-147 -153 l-44 0 7 67 c12 116 54 173 128 173 22 0 49 -5 60 -11z m366 -34
c97 -81 113 -286 57 -715 -22 -166 -26 -229 -22 -335 6 -161 25 -224 117 -400
102 -195 120 -275 79 -365 -38 -85 -108 -140 -177 -140 -62 0 -72 14 -59 84
16 85 -3 210 -63 418 -28 96 -57 213 -65 259 -23 127 -18 358 15 794 16 215
30 398 30 408 0 26 53 22 88 -8z m-1281 -36 c111 -53 169 -155 161 -284 -3
-38 -11 -83 -20 -99 l-15 -28 -31 55 c-44 79 -123 152 -206 191 -79 38 -126
52 -126 36 0 -5 24 -74 54 -153 83 -218 93 -316 44 -429 -62 -143 -243 -173
-332 -55 l-20 27 26 27 c53 56 60 91 69 328 4 121 12 236 18 255 47 153 211
209 378 129z m-1216 -123 c69 -103 125 -218 162 -331 29 -88 57 -212 57 -252
0 -25 0 -25 -27 -8 -161 102 -269 254 -309 433 -17 76 -16 244 2 286 7 18 9
17 32 -10 13 -16 50 -69 83 -118z m5252 114 c63 -55 79 -110 192 -685 87 -440
106 -552 103 -607 -4 -76 -29 -121 -69 -126 -24 -3 -27 4 -77 175 -29 98 -81
292 -115 431 -47 193 -65 251 -77 250 -23 -5 -124 -132 -163 -206 -37 -70 -77
-197 -77 -244 0 -32 -2 -33 -39 -14 -33 17 -84 73 -106 116 -13 26 -18 28 -34
18 -36 -22 -64 -87 -64 -147 0 -151 111 -249 351 -311 l42 -11 -47 -36 c-166
-124 -317 -316 -490 -620 -41 -73 -78 -133 -83 -133 -14 0 -60 60 -66 87 -11
41 3 127 27 174 12 24 62 89 111 144 121 134 133 158 132 265 0 90 2 83 -98
322 -51 120 -62 184 -46 255 17 79 90 150 225 221 114 59 196 120 248 184 103
125 156 262 164 426 3 56 10 102 14 102 5 0 24 -13 42 -30z m-5745 -133 c44
-21 65 -82 70 -194 6 -147 -30 -384 -65 -418 -18 -19 -101 -19 -126 -1 -15 12
-16 17 -4 52 46 132 47 287 1 435 -31 102 -28 117 27 136 35 12 57 10 97 -10z
m-302 -147 c44 -66 45 -171 3 -224 l-20 -26 -30 22 c-16 12 -41 46 -55 75 -22
44 -26 63 -22 112 2 32 12 70 21 85 17 25 19 26 47 11 17 -9 42 -33 56 -55z
m-433 2 c30 -32 38 -71 23 -100 -8 -15 -12 -39 -9 -54 3 -15 0 -43 -7 -62 -11
-34 -14 -36 -54 -36 -67 0 -81 16 -81 97 1 124 75 214 128 155z m6999 -69 c32
-35 58 -107 58 -161 0 -54 -19 -114 -40 -127 -16 -10 -78 51 -101 100 -23 49
-25 151 -4 201 14 34 15 35 42 20 16 -7 36 -22 45 -33z m-3647 -75 c3 -7 33
-303 66 -658 44 -453 62 -693 63 -805 1 -157 0 -162 -32 -250 -18 -52 -32
-108 -32 -135 0 -53 35 -134 74 -169 14 -14 26 -27 26 -31 0 -4 -91 -51 -201
-105 -232 -113 -280 -125 -323 -82 -41 41 -35 74 25 132 139 136 240 349 285
600 31 174 25 464 -19 850 -40 354 -50 555 -28 595 32 59 84 90 96 58z m-1586
-238 c6 -20 11 -55 11 -76 0 -43 -33 -124 -50 -124 -6 0 -20 20 -31 45 -26 59
-27 157 -2 209 l18 38 21 -27 c12 -15 27 -44 33 -65z m1164 36 c72 -30 139
-137 169 -270 14 -61 17 -328 5 -440 l-9 -78 -50 4 c-27 3 -54 10 -61 17 -8 8
-12 76 -15 209 -1 108 -5 207 -7 219 -14 63 -87 73 -141 19 -31 -31 -34 -39
-34 -97 0 -35 21 -191 46 -347 42 -262 44 -285 30 -307 -20 -31 -80 -43 -115
-24 -54 29 -71 90 -88 301 -22 283 -23 548 -1 618 48 154 156 224 271 176z
m6892 -72 c19 -42 35 -85 35 -95 0 -57 -99 -81 -145 -35 -28 28 -47 93 -43
144 3 42 31 62 85 62 31 0 34 -4 68 -76z m-9259 -287 c87 -211 108 -273 97
-275 -27 -7 -161 68 -211 116 -86 83 -112 144 -115 267 -2 51 30 113 73 143
18 12 36 22 39 22 3 0 56 -123 117 -273z m8285 67 c53 -110 72 -204 66 -324
-3 -52 -11 -115 -19 -139 l-14 -45 -42 45 c-57 58 -109 166 -124 256 -15 88
-2 191 32 271 22 51 23 52 42 35 11 -10 37 -54 59 -99z m-3384 -300 c6 -110
-5 -200 -39 -298 -25 -74 -77 -176 -89 -176 -5 0 -23 13 -41 29 l-33 30 1 123
c1 102 6 138 28 213 26 87 90 221 124 258 16 18 17 16 30 -30 7 -26 16 -93 19
-149z m-3094 18 c59 -65 62 -213 5 -259 -21 -18 -73 39 -88 95 -14 53 -6 95
26 145 27 42 34 44 57 19z m4940 -55 c30 -38 66 -119 83 -187 22 -88 12 -250
-16 -250 -5 0 -33 23 -64 51 -39 36 -67 74 -93 127 -36 72 -38 81 -38 171 0
91 1 96 25 108 33 18 81 8 103 -20z m1110 -166 c68 -125 75 -275 19 -396 -17
-36 -37 -65 -44 -65 -24 0 -86 73 -103 119 -17 49 -20 117 -6 154 6 15 5 42
-1 70 -10 48 1 158 22 213 l11 27 38 -37 c22 -21 50 -59 64 -85z m-7146 65
c34 -32 30 -87 -8 -100 -52 -18 -129 45 -129 106 0 14 2 27 5 30 12 12 109
-15 132 -36z m-550 -150 c19 -20 33 -46 33 -60 0 -41 -21 -126 -31 -126 -19 0
-84 38 -106 62 -44 47 -70 149 -40 162 6 3 34 4 61 2 42 -3 55 -9 83 -40z
m1312 -33 c100 -58 173 -148 210 -260 21 -62 29 -173 13 -173 -19 0 -151 101
-186 142 -73 85 -127 194 -151 305 l-6 32 38 -10 c21 -6 58 -22 82 -36z m4515
-25 c40 -18 52 -44 94 -214 71 -285 113 -579 127 -899 10 -218 -15 -332 -82
-385 l-28 -22 -8 39 c-6 30 -147 1458 -147 1486 0 10 15 9 44 -5z m-4935 -25
c5 -10 10 -43 12 -73 4 -51 2 -55 -24 -68 -22 -10 -35 -11 -62 -2 -42 14 -59
41 -50 80 13 59 102 104 124 63z m1527 -128 c16 -40 18 -114 3 -167 -12 -44
-18 -46 -56 -14 -25 22 -27 28 -25 91 3 66 14 103 36 117 20 13 27 9 42 -27z
m-2051 2 c17 -13 17 -16 -6 -81 -13 -37 -31 -72 -40 -76 -37 -21 -139 32 -139
72 0 25 61 85 92 91 46 9 75 7 93 -6z m5208 -22 c39 -38 27 -176 -23 -275 -43
-86 -110 -154 -192 -195 -70 -34 -98 -42 -98 -27 0 4 38 102 84 217 93 232
132 295 186 295 16 0 35 -7 43 -15z m943 -99 c19 -22 43 -64 55 -95 11 -31 26
-59 32 -64 8 -5 5 -14 -13 -28 -20 -17 -34 -20 -79 -17 -47 4 -59 10 -87 41
-18 19 -37 52 -43 74 -12 42 -15 166 -5 176 12 12 105 -46 140 -87z m-4718
-15 c26 -127 136 -278 251 -346 89 -53 88 -95 -7 -278 -53 -101 -62 -125 -62
-171 0 -94 67 -161 215 -215 155 -56 444 -140 680 -197 127 -31 238 -59 248
-63 12 -4 -104 -43 -310 -105 -472 -142 -538 -170 -624 -258 -126 -128 -98
-348 50 -388 61 -16 132 1 227 57 185 107 242 133 297 133 29 0 61 -6 71 -13
17 -12 5 -32 -157 -253 -213 -289 -238 -333 -245 -425 -6 -84 18 -140 85 -199
65 -57 140 -83 238 -83 98 0 169 19 324 84 179 75 272 149 287 228 l7 34 -34
-7 c-111 -24 -217 -36 -315 -36 -125 0 -234 9 -234 20 0 9 143 75 244 112 109
40 249 74 386 94 197 28 514 12 692 -36 l43 -12 -90 -27 c-381 -114 -739 -407
-948 -775 -129 -227 -207 -504 -207 -737 0 -49 -4 -89 -9 -89 -18 0 -304 121
-407 173 -225 113 -414 264 -509 406 -24 37 -249 489 -500 1006 -251 517 -554
1139 -672 1383 -119 243 -213 445 -211 447 8 8 203 -189 269 -272 186 -232
338 -533 401 -793 12 -49 26 -90 30 -90 16 0 93 43 143 80 171 127 283 334
293 545 5 115 -10 205 -63 374 -73 230 -91 339 -75 450 16 113 45 178 111 243
31 32 61 58 66 58 5 0 14 -26 21 -59z m2831 -86 c35 -30 55 -84 76 -209 31
-176 85 -272 249 -443 l119 -124 -24 -25 c-30 -32 -103 -70 -153 -79 -43 -9
-44 2 2 -145 36 -115 60 -249 69 -389 l6 -104 -38 6 c-51 8 -108 50 -145 105
-69 104 -90 249 -72 497 16 233 -8 346 -95 446 -79 91 -113 176 -113 279 0 92
42 210 74 210 8 0 28 -11 45 -25z m-3776 -113 c83 -81 101 -237 37 -323 l-19
-24 -43 46 c-87 90 -127 226 -97 331 l10 38 37 -16 c20 -8 54 -31 75 -52z
m6258 -54 c21 -6 62 -31 90 -55 28 -23 60 -43 71 -43 27 0 20 -28 -15 -54 -45
-33 -145 -28 -230 12 -60 28 -67 34 -67 60 0 31 29 64 70 81 33 13 36 13 81
-1z m-5880 -190 c134 -195 219 -466 219 -696 l0 -96 -31 30 c-108 102 -239
334 -284 504 -25 96 -49 294 -41 340 2 14 5 38 5 53 1 28 2 27 47 -25 25 -29
64 -79 85 -110z m4439 53 c0 -10 16 -210 35 -445 36 -437 43 -662 24 -775 -33
-207 -142 -367 -305 -447 -75 -38 -79 -38 -203 -41 -69 -1 -150 -5 -179 -8
-127 -15 -286 -77 -400 -153 -67 -46 -72 -44 -72 29 0 97 104 202 235 238 22
6 110 15 195 20 190 12 267 33 332 91 160 140 271 540 239 857 -6 64 -21 157
-32 206 -30 138 -35 226 -15 289 21 63 56 112 100 139 39 24 46 24 46 0z
m-2523 -21 c30 -18 63 -65 63 -90 0 -13 -58 -101 -74 -113 -6 -4 -30 -6 -54
-4 -104 11 -161 147 -85 207 34 27 107 27 150 0z m7367 -162 c46 -654 -174
-1359 -701 -2240 -52 -87 -97 -160 -102 -162 -4 -3 -18 6 -31 19 -43 46 -27
100 103 355 305 595 475 1126 572 1788 29 196 52 270 96 307 50 41 55 35 63
-67z m-6225 -294 c67 -198 15 -425 -132 -579 -34 -36 -69 -65 -76 -65 -24 0
-9 273 23 395 28 108 130 328 150 322 6 -2 22 -34 35 -73z m2651 0 c97 -105
122 -256 65 -391 l-17 -38 -40 45 c-54 60 -105 169 -118 254 -6 37 -12 71 -13
75 -4 11 58 101 69 101 6 0 30 -21 54 -46z m-3802 1 c45 -10 47 -19 12 -58
-54 -62 -156 -88 -242 -63 -49 14 -119 59 -108 68 3 3 26 20 51 39 l45 34 105
-6 c57 -4 119 -10 137 -14z m3423 -181 c47 -46 79 -125 79 -195 0 -64 -25
-138 -98 -286 -32 -65 -61 -129 -65 -142 -8 -34 -46 -24 -71 18 -20 34 -20 37
-2 290 9 141 20 280 23 310 l6 53 44 -5 c35 -4 54 -14 84 -43z m-2099 -351
c39 -37 51 -104 38 -212 -14 -117 -52 -271 -90 -367 -35 -88 -110 -234 -121
-234 -8 0 -36 152 -44 241 -14 149 30 369 105 527 36 75 42 83 62 77 13 -4 35
-19 50 -32z m1548 -784 c-100 -937 -107 -999 -120 -1014 -15 -18 -80 -20 -103
-2 -50 37 -71 411 -34 585 20 91 65 230 91 279 9 18 16 37 16 43 0 16 -75 3
-125 -23 -114 -58 -164 -122 -334 -437 -120 -221 -288 -448 -439 -593 -94 -90
-168 -119 -216 -84 -17 13 -9 28 114 208 286 417 585 814 896 1191 210 253
299 352 302 336 1 -8 -20 -228 -48 -489z m296 119 c14 -154 4 -207 -50 -250
-37 -30 -64 -23 -75 20 -27 95 4 214 77 294 14 15 28 25 32 23 5 -3 11 -42 16
-87z m-1986 -438 c0 -15 -116 -333 -194 -533 -76 -195 -206 -503 -269 -639
-82 -176 -204 -269 -276 -210 l-21 17 215 492 c118 270 215 496 215 501 0 8
-136 32 -182 32 -11 0 -60 -76 -150 -232 -73 -128 -151 -253 -173 -276 -74
-82 -155 -104 -200 -56 -36 39 -33 92 11 184 128 268 392 469 884 676 137 58
140 59 140 44z m324 -227 c-3 -87 -9 -161 -13 -165 -11 -12 -104 28 -120 51
-21 32 -18 119 7 166 29 57 82 101 125 104 5 1 5 -70 1 -156z m4469 32 c-4
-50 -42 -107 -86 -128 -55 -26 -76 -22 -93 18 -12 30 -12 39 0 69 18 43 51 65
113 76 65 10 68 9 66 -35z m304 -602 c21 -32 19 -76 -6 -116 -11 -17 -100
-108 -198 -201 -98 -93 -268 -255 -378 -360 -109 -105 -190 -176 -178 -157
128 207 646 854 691 863 29 7 53 -4 69 -29z m-5097 -169 c37 -25 50 -45 50
-77 0 -41 -27 -82 -70 -106 -42 -23 -71 -26 -101 -10 -18 9 -19 17 -14 52 8
46 28 100 51 135 17 26 50 28 84 6z m3560 -215 c49 -11 50 -11 50 -49 0 -53
-23 -74 -112 -99 -112 -31 -187 -37 -225 -18 -36 19 -83 72 -83 93 0 16 87 59
149 73 52 13 162 13 221 0z m-4600 -39 c47 -33 70 -91 70 -175 0 -66 -12 -140
-24 -152 -3 -3 -25 5 -50 17 -89 43 -156 150 -156 250 0 20 -5 41 -11 47 -8 8
-4 15 13 28 33 23 115 16 158 -15z m3306 -116 c32 -21 60 -82 45 -97 -5 -5
-32 -12 -59 -15 l-49 -4 -32 55 c-17 30 -31 59 -31 65 0 27 83 24 126 -4z
m-2482 -44 c9 -22 16 -67 16 -99 0 -77 -45 -170 -103 -212 -22 -16 -43 -29
-48 -29 -4 0 -19 23 -33 52 -56 111 -14 267 87 328 39 24 59 14 81 -40z m-422
-305 c16 -27 27 -59 25 -70 -3 -29 -63 -65 -108 -65 -38 0 -39 1 -68 65 -47
103 -47 103 -9 114 18 5 56 9 83 8 49 -2 51 -3 77 -52z m731 -12 c11 -6 9 -55
-4 -92 -9 -26 -16 -31 -44 -31 -19 0 -45 4 -59 10 -22 8 -26 16 -26 50 0 23 5
50 11 61 9 18 17 20 62 14 29 -4 55 -9 60 -12z m2834 -224 c23 -7 32 -18 37
-41 9 -45 7 -127 -5 -177 -13 -56 -49 -141 -60 -141 -18 0 -81 65 -102 104
-17 33 -21 58 -21 131 0 118 9 135 73 135 26 0 62 -5 78 -11z m-2513 -21 c19
-73 -18 -165 -114 -278 -93 -112 -114 -158 -115 -253 0 -76 1 -80 32 -107 42
-38 114 -47 206 -26 76 18 150 53 278 132 229 142 355 166 480 91 99 -60 145
-182 90 -241 -54 -57 -188 -106 -293 -106 -63 0 -69 7 -37 36 12 10 49 50 82
87 48 54 58 71 46 78 -25 15 -74 10 -119 -14 -49 -26 -94 -96 -87 -135 4 -19
1 -21 -16 -16 -47 15 -166 3 -287 -27 -291 -74 -412 -35 -761 244 -168 135
-523 472 -513 488 9 15 222 10 399 -11 264 -30 342 -34 439 -21 98 13 174 38
226 75 44 31 56 32 64 4z m1364 -165 c24 -53 27 -71 30 -207 3 -98 0 -163 -8
-190 -24 -83 -101 -127 -156 -91 l-26 17 4 151 c4 131 8 161 30 218 29 78 75
159 89 159 6 0 22 -26 37 -57z"/>
<path d="M8325 24408 c-166 -131 -324 -308 -436 -488 -47 -75 -149 -278 -149
-296 0 -3 31 -5 69 -2 93 5 121 25 247 183 187 232 295 413 348 583 14 46 26
85 26 88 0 12 -23 -3 -105 -68z"/>
<path d="M7711 23333 c-27 -28 -56 -72 -69 -103 -26 -66 -327 -1319 -318
-1327 11 -11 119 63 165 114 103 115 175 272 240 523 64 247 107 528 113 735
l3 100 -44 3 c-41 3 -47 0 -90 -45z"/>
<path d="M10693 24023 c-70 -9 -107 -105 -66 -174 23 -39 49 -46 81 -22 56 42
87 115 75 175 -6 30 -11 31 -90 21z"/>
<path d="M14223 21542 c-54 -31 -63 -39 -63 -64 0 -37 26 -88 45 -88 56 0 105
58 105 126 0 62 -15 66 -87 26z"/>
<path d="M14117 21234 c-33 -33 -45 -76 -49 -175 -3 -91 7 -109 62 -109 44 0
80 34 100 95 15 46 10 65 -43 148 l-44 68 -26 -27z"/>
<path d="M13719 20307 c-18 -12 -47 -42 -63 -65 -26 -37 -31 -54 -34 -119 -4
-75 -4 -75 19 -68 86 26 161 152 144 242 -7 39 -20 41 -66 10z"/>
<path d="M13451 19644 c-68 -34 -142 -109 -175 -176 -25 -51 -53 -165 -43
-175 11 -10 80 11 129 41 38 22 53 38 54 54 2 30 53 83 132 135 34 23 62 46
62 52 0 14 -40 78 -54 87 -20 14 -52 8 -105 -18z"/>
<path d="M10955 22686 c-70 -33 -127 -85 -146 -133 -22 -58 -1 -140 40 -163
34 -18 88 -12 115 13 33 30 75 154 83 245 7 86 8 85 -92 38z"/>
<path d="M10311 22513 c-84 -85 -128 -163 -157 -274 -31 -121 -18 -283 31
-380 37 -76 97 -60 142 38 22 48 28 87 49 316 12 144 26 288 29 320 4 40 3 57
-6 57 -6 0 -46 -35 -88 -77z"/>
<path d="M11814 22145 c-61 -63 -74 -143 -39 -227 10 -24 13 -23 71 13 56 35
97 72 125 111 18 24 18 30 6 60 -18 43 -54 74 -92 81 -26 4 -36 -1 -71 -38z"/>
<path d="M10386 21744 c-29 -28 -12 -164 20 -164 26 0 70 31 88 60 21 37 21
106 0 114 -30 12 -93 6 -108 -10z"/>
<path d="M9781 21606 c-40 -48 -13 -174 51 -238 l41 -41 14 39 c40 108 46 136
34 175 -6 21 -23 47 -38 58 -30 24 -85 28 -102 7z"/>
<path d="M10191 21575 c-48 -121 -121 -423 -146 -605 -25 -181 -30 -534 -11
-720 18 -167 62 -399 99 -520 27 -89 53 -110 112 -90 92 31 99 126 21 320 -58
143 -78 218 -79 295 0 73 19 120 72 178 158 171 205 428 131 710 -23 88 -78
228 -143 367 -45 95 -45 95 -56 65z"/>
<path d="M12429 17031 c-16 -16 -29 -39 -29 -51 0 -56 57 -106 112 -98 21 3
24 10 31 76 11 93 8 102 -43 102 -33 0 -48 -6 -71 -29z"/>
<path d="M15449 15963 c-50 -129 -52 -135 -38 -144 26 -17 62 -22 98 -13 30 7
37 14 39 38 5 43 -5 72 -39 111 -37 42 -46 43 -60 8z"/>
<path d="M13951 12085 c-61 -52 -261 -397 -336 -580 -60 -145 -116 -405 -88
-405 16 0 144 100 198 155 206 206 342 505 348 763 l2 87 -46 3 c-38 2 -52 -2
-78 -23z"/>
<path d="M14285 9618 c-119 -16 -234 -94 -347 -236 l-58 -74 87 -70 c49 -38
89 -71 90 -72 1 -1 16 -64 32 -140 16 -76 35 -143 43 -147 23 -15 64 -10 98
14 55 37 73 78 86 205 16 147 30 169 144 232 93 51 130 93 130 145 0 40 -47
90 -115 120 -61 28 -111 34 -190 23z"/>
<path d="M14570 9187 c-33 -11 -35 -15 -38 -61 -4 -62 35 -147 84 -180 19 -12
31 -26 28 -29 -4 -4 -1 -14 7 -23 10 -12 24 -15 54 -11 51 7 95 53 95 100 -1
74 -83 188 -148 207 -44 12 -38 12 -82 -3z"/>
<path d="M13256 8955 c-9 -10 -14 -25 -12 -34 3 -9 14 -53 26 -99 76 -302 235
-611 448 -867 69 -82 151 -118 182 -80 29 35 -254 622 -460 954 -69 112 -146
164 -184 126z"/>
<path d="M12748 8793 c-36 -40 -48 -66 -48 -110 0 -74 72 -110 117 -60 48 52
50 130 6 179 -23 25 -45 22 -75 -9z"/>
<path d="M13902 8448 c-16 -16 -15 -83 2 -117 17 -33 57 -61 86 -61 17 0 20 6
20 41 0 52 -24 104 -60 129 -33 24 -33 23 -48 8z"/>
<path d="M14125 7976 c-41 -63 -44 -190 -6 -265 18 -34 26 -41 50 -41 55 0
111 65 125 143 7 38 -18 116 -42 131 -6 4 -9 13 -6 21 6 15 -9 20 -74 28 -26
3 -37 -1 -47 -17z"/>
<path d="M18976 17028 c-14 -13 -28 -35 -32 -50 -5 -24 -1 -29 35 -47 43 -22
104 -27 145 -11 38 14 34 54 -8 96 -42 42 -100 47 -140 12z"/>
<path d="M17745 16896 c-71 -31 -80 -76 -29 -143 30 -40 38 -40 68 -8 32 34
40 85 22 129 -17 40 -19 41 -61 22z"/>
<path d="M19706 15549 c-34 -40 -36 -113 -6 -152 38 -48 124 -54 171 -11 17
15 17 19 4 51 -23 54 -107 143 -136 143 -4 0 -19 -14 -33 -31z"/>
<path d="M19741 15166 c-28 -30 -27 -99 2 -104 37 -7 86 9 118 39 l33 31 -32
29 c-41 37 -89 39 -121 5z"/>
<path d="M19054 14811 c-80 -37 -99 -108 -44 -163 27 -26 36 -30 67 -25 32 6
41 1 82 -34 56 -50 122 -84 198 -104 60 -16 173 -20 173 -7 0 21 -83 127 -159
202 -135 133 -230 172 -317 131z"/>
<path d="M18182 14353 c-22 -8 -42 -60 -42 -107 0 -42 2 -45 35 -56 76 -25
110 8 100 95 -8 65 -41 89 -93 68z"/>
<path d="M19284 14316 c-42 -19 -64 -52 -64 -99 0 -104 92 -159 178 -107 87
53 75 173 -21 209 -36 14 -55 13 -93 -3z"/>
<path d="M17873 12458 c-33 -16 -48 -60 -34 -100 26 -73 89 -100 132 -57 17
17 20 30 16 66 -8 69 -64 115 -114 91z"/>
<path d="M17995 11935 c-73 -26 -100 -83 -69 -145 22 -45 324 -371 339 -367
18 6 45 71 45 111 0 78 -57 244 -111 322 -52 76 -130 106 -204 79z"/>
<path d="M18474 10581 c16 -140 86 -322 180 -466 56 -86 189 -235 209 -235 6
0 7 34 3 90 -16 214 -94 395 -235 543 -53 56 -140 127 -156 127 -4 0 -5 -27
-1 -59z"/>
<path d="M13454 18311 c-32 -20 -64 -82 -64 -126 0 -30 32 -65 61 -65 33 0 85
29 97 53 24 48 18 92 -17 128 -35 34 -37 35 -77 10z"/>
<path d="M7320 16991 c-93 -29 -185 -115 -218 -204 -43 -114 -50 -270 -21
-442 19 -111 259 -1162 278 -1216 10 -30 30 -77 44 -105 27 -53 102 -128 137
-137 19 -5 20 -2 12 66 -11 113 -8 562 6 667 51 393 118 621 208 714 72 74
180 104 257 73 18 -8 63 -39 101 -70 82 -65 137 -85 189 -68 77 26 56 62 -163
282 -239 240 -457 391 -625 434 -62 16 -163 19 -205 6z"/>
<path d="M8076 15140 c-63 -41 -81 -127 -51 -245 61 -234 311 -411 478 -337
80 36 106 105 68 187 -33 72 -78 95 -136 70 -50 -20 -88 -19 -135 5 -74 38
-113 132 -109 258 2 46 -2 66 -12 73 -24 15 -72 10 -103 -11z"/>
<path d="M12082 4239 c-51 -26 -64 -44 -217 -307 -82 -143 -114 -207 -107
-214 7 -7 43 -9 95 -6 66 3 97 10 143 33 81 40 155 116 184 190 31 78 34 207
7 278 -22 55 -38 59 -105 26z"/>
<path d="M11888 3365 c-37 -20 -72 -96 -64 -139 12 -62 58 -111 146 -155 44
-22 87 -38 95 -35 31 12 6 142 -46 246 -49 96 -75 113 -131 83z"/>
<path d="M12835 2314 c-128 -87 -146 -241 -41 -352 33 -35 75 -62 99 -62 10 0
16 20 20 73 4 44 14 89 28 116 31 61 30 143 -2 202 -30 54 -52 59 -104 23z"/>
<path d="M14125 671 c-11 -5 -28 -18 -38 -29 -17 -19 -17 -21 10 -52 32 -39
109 -90 135 -90 24 0 38 30 38 80 0 75 -72 120 -145 91z"/>
</g>
</svg>
