<?xml version="1.0" standalone="no"?>
<!DOCTYPE svg PUBLIC "-//W3C//DTD SVG 20010904//EN"
 "http://www.w3.org/TR/2001/REC-SVG-20010904/DTD/svg10.dtd">
<svg version="1.0" xmlns="http://www.w3.org/2000/svg"
 width="2500.000000pt" height="2500.000000pt" viewBox="0 0 2500.000000 2500.000000"
 preserveAspectRatio="xMidYMid meet">
<metadata>
Created by potrace 1.13, written by Peter Selinger 2001-2015
</metadata>
<g transform="translate(0.000000,2500.000000) scale(0.100000,-0.100000)"
fill="#ffffff" stroke="none" opacity=".1">
<g
fill="#00bcd4" stroke="none">
<path d="M2648 22936 l-1078 -621 0 -1245 0 -1245 1074 -619 c591 -341 1077
-619 1081 -619 4 0 490 278 1081 619 l1074 619 0 1245 0 1245 -1032 595 c-568
327 -1052 607 -1077 621 l-46 26 -1077 -621z m1827 -619 l700 -404 0 -843 0
-843 -724 -418 c-695 -401 -726 -417 -750 -404 -14 8 -341 196 -726 418 l-700
404 0 843 0 843 725 418 c694 400 725 417 750 404 14 -8 340 -196 725 -418z"/>
</g>
<g
fill="#ff4351" stroke="none">
<path d="M18498 22936 l-1078 -621 0 -1245 0 -1245 1074 -619 c591 -341 1077
-619 1081 -619 4 0 490 278 1081 619 l1074 619 0 1245 0 1245 -1032 595 c-568
327 -1052 607 -1077 621 l-46 26 -1077 -621z m1827 -619 l700 -404 0 -843 0
-843 -724 -418 c-695 -401 -726 -417 -750 -404 -14 8 -341 196 -726 418 l-700
404 0 843 0 843 725 418 c694 400 725 417 750 404 14 -8 340 -196 725 -418z"/>
</g>
<g
fill="#1b9af7" stroke="none">
<path d="M8690 22377 c0 -3 -29 -158 -65 -343 -35 -186 -63 -340 -61 -342 8
-7 5426 -1035 5431 -1030 11 10 134 673 127 679 -4 3 -1222 236 -2707 519
-1485 282 -2706 515 -2712 518 -7 2 -13 2 -13 -1z"/>
</g>
<g
fill="#feae1b" stroke="none">
<path d="M13894 18869 c-738 -66 -1367 -598 -1554 -1314 -46 -178 -55 -246
-55 -450 0 -193 9 -267 47 -420 166 -664 701 -1180 1364 -1314 396 -80 785
-28 1149 154 167 84 291 173 433 310 355 342 542 781 542 1270 0 391 -121 753
-355 1064 -91 120 -271 295 -395 383 -246 175 -556 288 -870 317 -127 12 -172
12 -306 0z m376 -715 c304 -62 596 -286 737 -569 174 -346 148 -757 -70 -1080
-49 -73 -163 -192 -237 -249 -121 -93 -288 -170 -435 -201 -100 -21 -294 -24
-395 -6 -224 40 -437 155 -593 320 -395 419 -395 1053 0 1472 157 166 382 287
594 318 40 6 85 13 99 15 44 8 222 -4 300 -20z"/>
</g>
<g
fill="#1b9af7" stroke="none">
<path d="M8510 16682 c-321 -691 -811 -1745 -1088 -2342 -277 -597 -512 -1104
-522 -1126 l-18 -42 141 -65 c78 -36 1150 -534 2381 -1106 1232 -572 2241
-1039 2243 -1037 2 2 -508 1402 -1133 3112 -625 1710 -1197 3276 -1271 3479
-74 204 -138 373 -142 377 -4 4 -269 -558 -591 -1250z m1209 -2468 c381 -1042
691 -1898 688 -1900 -2 -3 -483 217 -1068 489 -585 272 -1168 543 -1296 602
l-232 107 13 32 c8 17 199 429 425 916 227 487 492 1057 589 1267 97 211 180
383 183 383 3 0 317 -853 698 -1896z"/>
</g>
<g
fill="#00bcd4" stroke="none">
<path d="M3477 15652 l-1907 -1907 248 -248 247 -247 1910 1910 1910 1910
-245 245 c-135 135 -247 245 -250 245 -3 0 -863 -858 -1913 -1908z"/>
</g>
<g
fill="#1b9af7" stroke="none">
<path d="M20415 14769 c-1537 -696 -2379 -1083 -2377 -1091 9 -36 2158 -4776
2163 -4770 3 4 29 68 57 142 156 417 2090 5550 2279 6050 299 789 285 750 270
749 -6 -1 -1083 -487 -2392 -1080z m1131 -311 c-13 -35 -333 -884 -711 -1888
-378 -1004 -690 -1828 -693 -1832 -7 -6 -1177 2573 -1177 2594 0 9 2569 1183
2597 1187 4 1 -3 -27 -16 -61z"/>
</g>
<g
fill="#ff4351" stroke="none">
<path d="M3946 12659 c-732 -65 -1364 -606 -1549 -1324 -43 -170 -52 -240 -52
-440 0 -200 9 -270 52 -440 236 -920 1169 -1495 2092 -1289 652 146 1168 645
1334 1289 43 170 52 240 52 440 0 200 -9 270 -52 440 -187 728 -817 1260
-1568 1324 -135 12 -168 12 -309 0z m274 -699 c130 -15 234 -46 355 -105 129
-63 216 -127 310 -226 392 -416 392 -1052 0 -1468 -38 -39 -98 -94 -134 -122
-86 -65 -265 -153 -366 -179 -257 -66 -503 -41 -740 75 -129 63 -216 127 -310
226 -392 416 -392 1052 0 1468 94 99 181 163 310 226 191 94 376 128 575 105z"/>
</g>
<g
fill="#feae1b" stroke="none">
<path d="M13622 11809 c-96 -165 -172 -302 -170 -303 13 -11 4659 -2696 4668
-2698 6 -2 89 132 184 297 l174 300 -27 15 c-109 66 -4629 2680 -4641 2684
-11 4 -60 -72 -188 -295z"/>
</g>
<g
fill="#ff4351" stroke="none">
<path d="M12300 8109 c-679 -78 -1267 -558 -1479 -1206 -210 -640 -46 -1326
430 -1802 538 -538 1358 -674 2031 -336 796 400 1173 1297 897 2138 -237 725
-932 1224 -1694 1216 -60 -1 -144 -5 -185 -10z m461 -722 c375 -97 675 -396
777 -776 22 -85 25 -115 25 -261 0 -146 -3 -176 -25 -261 -102 -379 -398 -675
-777 -777 -85 -22 -115 -25 -261 -25 -146 0 -176 3 -261 25 -379 102 -675 398
-777 777 -22 85 -25 115 -25 261 0 146 3 176 25 261 112 418 459 732 884 799
102 16 307 4 415 -23z"/>
</g>
<g
fill="#00bcd4" stroke="none">
<path d="M3970 7209 c0 -7 200 -1066 445 -2354 246 -1287 465 -2439 487 -2560
23 -121 44 -223 47 -227 4 -4 240 37 526 92 286 54 1445 275 2575 490 1130
215 2056 393 2058 394 1 2 -1218 834 -2710 1849 -1492 1014 -2861 1946 -3043
2069 -414 282 -385 263 -385 247z m2667 -2645 c912 -620 1664 -1132 1671
-1138 10 -10 -301 -72 -1394 -280 -773 -147 -1407 -266 -1409 -264 -1 2 -120
624 -264 1383 -144 759 -265 1390 -268 1403 -3 12 -2 22 1 22 3 0 752 -507
1663 -1126z"/>
</g>
<g
fill="#1b9af7" stroke="none">
<path d="M17057 5588 l-1077 -620 2 -1246 3 -1246 1070 -618 c589 -339 1075
-617 1080 -617 6 0 492 278 1080 617 l1070 618 3 1246 2 1246 -1072 617 c-590
340 -1076 620 -1079 621 -3 2 -490 -276 -1082 -618z m1812 -608 l720 -415 1
-841 0 -841 -717 -414 c-395 -227 -727 -414 -738 -414 -11 0 -343 187 -737
414 l-718 414 0 841 1 841 722 417 c397 229 727 416 733 415 7 -1 336 -189
733 -417z"/>
</g>
</g>
</svg>
