<?xml version="1.0" standalone="no"?>
<!DOCTYPE svg PUBLIC "-//W3C//DTD SVG 20010904//EN"
 "http://www.w3.org/TR/2001/REC-SVG-20010904/DTD/svg10.dtd">
<svg version="1.0" xmlns="http://www.w3.org/2000/svg"
 width="1242.000000pt" height="1242.000000pt" viewBox="0 0 1242.000000 1242.000000"
 preserveAspectRatio="xMidYMid meet">
<metadata>
Created by potrace 1.13, written by Peter Selinger 2001-2015
</metadata>
<g transform="translate(0.000000,1242.000000) scale(0.100000,-0.100000)"
fill="#cccccc" stroke="none">
<path d="M6130 10716 c-89 -19 -162 -48 -245 -97 -104 -61 -3287 -1898 -3378
-1949 -234 -132 -367 -358 -367 -625 0 -276 135 -497 390 -637 41 -23 730
-419 1530 -881 800 -462 1538 -888 1640 -947 634 -366 1015 -585 1151 -664 86
-50 407 -235 712 -411 306 -176 555 -324 554 -329 -3 -8 -1877 -1095 -1953
-1133 l-30 -15 -1550 894 c-852 492 -1567 901 -1589 911 -202 84 -442 67 -633
-45 -79 -46 -201 -169 -250 -253 -147 -251 -127 -553 51 -790 84 -111 82 -111
787 -517 253 -146 2706 -1563 2830 -1635 180 -104 400 -125 592 -57 40 15 120
54 178 89 136 81 3253 1879 3345 1930 45 25 101 69 156 124 71 71 94 102 133
181 60 123 79 213 74 350 -5 119 -40 237 -99 337 -48 80 -162 192 -244 240
-38 22 -182 105 -320 184 -311 178 -254 145 -2010 1159 -803 464 -1503 868
-1555 898 -1272 734 -1728 997 -1743 1007 -15 10 62 58 560 346 318 183 763
440 990 571 226 131 416 238 423 238 6 0 102 -52 213 -116 111 -65 258 -149
327 -189 1812 -1047 2525 -1457 2568 -1479 125 -63 322 -85 467 -51 144 33
294 126 386 239 248 304 199 767 -106 1005 -27 21 -718 424 -1535 896 -1820
1050 -1793 1034 -1913 1107 -179 108 -372 149 -537 114z"/>
</g>
</svg>
