<?xml version="1.0" standalone="no"?>
<!DOCTYPE svg PUBLIC "-//W3C//DTD SVG 20010904//EN"
 "http://www.w3.org/TR/2001/REC-SVG-20010904/DTD/svg10.dtd">
<svg version="1.0" xmlns="http://www.w3.org/2000/svg"
 width="2828.000000" height="2828.000000" viewBox="0 0 2828.000000 2828.000000"
 preserveAspectRatio="xMidYMid meet">
<metadata>
Created by potrace 1.13, written by Peter Selinger 2001-2015
</metadata>
<g transform="translate(0.000000,2828.000000) scale(0.100000,-0.100000)"
fill="#cccccc" stroke="none">
<path d="M5260 26134 c-742 -113 -1208 -612 -1349 -1446 -59 -344 -63 -512
-52 -2072 10 -1344 18 -2602 23 -3526 l3 -475 -80 -17 c-287 -61 -494 -72
-1195 -64 -632 7 -827 1 -1072 -34 -650 -95 -1106 -403 -1366 -925 -315 -632
-187 -1357 330 -1862 251 -245 559 -389 958 -447 197 -29 416 -36 1414 -46
550 -5 1000 -11 1001 -12 1 -2 -6 -779 -17 -1728 -21 -1956 -19 -3126 6 -3500
40 -594 93 -990 193 -1440 294 -1332 940 -2595 1873 -3665 231 -264 664 -684
950 -920 1172 -970 2599 -1578 4140 -1765 328 -39 517 -52 890 -57 590 -9
1045 26 1600 123 633 110 1342 329 1920 594 165 75 266 105 402 120 281 31
564 -33 1162 -262 419 -161 702 -252 1041 -337 1911 -476 3987 -244 5769 646
1066 532 1967 1272 2701 2218 1446 1863 2058 4290 1649 6535 -226 1241 -773
2463 -1573 3514 -528 695 -1194 1331 -1906 1822 -788 545 -1647 932 -2570
1159 -673 165 -1274 237 -1990 237 -664 0 -1224 -61 -1881 -207 -1047 -233
-2108 -703 -2936 -1302 -48 -35 -90 -63 -93 -63 -2 0 -6 1666 -8 3703 -3 3379
-5 3714 -20 3842 -43 359 -106 599 -217 831 -168 349 -463 612 -835 744 -479
169 -1034 121 -1450 -125 -413 -244 -669 -682 -764 -1308 -48 -315 -46 -12
-46 -6957 0 -7129 -2 -6935 61 -7760 135 -1796 544 -3089 1295 -4093 97 -131
125 -174 114 -180 -26 -14 -323 -86 -458 -111 -1466 -271 -3065 213 -4184
1265 -876 824 -1359 1914 -1502 3389 -41 419 -46 555 -45 1235 1 487 6 802 22
1205 38 952 47 1463 34 1893 -7 210 -17 440 -22 511 -8 100 -8 131 2 137 19
12 221 48 359 63 215 25 469 29 990 16 662 -16 913 -2 1214 70 345 82 593 217
821 444 279 279 437 620 474 1021 19 199 -12 431 -85 635 -40 111 -137 297
-208 397 -75 106 -254 290 -357 366 -280 206 -607 309 -1100 346 -74 5 -583
22 -1130 37 -547 15 -996 28 -998 29 -2 2 4 1215 13 2696 17 2783 16 2928 -21
3234 -41 343 -129 638 -262 879 -229 416 -619 677 -1123 751 -132 19 -380 18
-509 -1z m15280 -10949 c1385 -150 2624 -829 3419 -1874 520 -684 862 -1534
970 -2409 84 -675 33 -1345 -150 -1975 -281 -973 -918 -1879 -1771 -2522 -273
-207 -509 -351 -823 -505 -567 -278 -1100 -426 -1730 -480 -154 -13 -575 -13
-730 0 -593 50 -1152 204 -1700 469 -525 254 -981 584 -1405 1017 -401 409
-685 808 -930 1309 -164 334 -269 617 -349 945 -100 407 -141 750 -141 1174 0
341 25 614 86 931 237 1238 1008 2387 2094 3124 676 458 1446 737 2215 800 72
6 148 13 170 15 94 9 639 -4 775 -19z"/>
</g>
</svg>
